<?xml version="1.0" encoding="UTF-8" ?>
<!DOCTYPE svg PUBLIC "-//W3C//DTD SVG 1.1//EN" "http://www.w3.org/Graphics/SVG/1.1/DTD/svg11.dtd">
<svg width="1216pt" height="961pt" viewBox="0 0 1216 961" version="1.1" xmlns="http://www.w3.org/2000/svg">
<g id="#fefefefe">
<path fill="#fefefe" opacity="1.00" d=" M 357.80 64.61 C 375.02 56.18 393.67 49.80 412.97 49.02 C 421.05 48.93 429.29 49.94 436.84 52.95 C 450.92 59.40 460.87 72.47 466.64 86.53 C 475.44 107.46 475.92 130.61 475.76 152.98 C 475.00 181.80 469.61 210.37 461.12 237.88 C 449.30 274.74 433.48 310.24 415.11 344.29 C 394.01 383.31 369.71 420.51 344.30 456.85 C 372.70 445.77 399.30 430.76 426.87 417.89 C 438.86 412.44 449.14 404.09 460.28 397.20 C 480.29 384.87 502.74 377.19 525.47 371.62 C 528.70 375.08 532.35 378.57 533.86 383.19 C 534.70 385.49 533.26 388.08 530.91 388.66 C 496.31 397.19 461.91 412.89 438.33 440.41 C 451.28 457.50 470.84 467.44 486.26 481.91 C 510.74 464.86 537.42 451.41 563.03 436.20 C 565.29 434.72 568.19 433.75 569.42 431.13 C 575.40 421.21 578.88 409.51 587.48 401.36 C 589.98 398.85 593.08 397.06 596.29 395.61 C 595.06 426.33 576.59 453.19 574.94 483.81 C 589.95 470.93 592.13 449.83 603.22 434.27 C 605.82 430.84 608.41 426.69 613.00 425.83 C 617.25 424.38 622.07 427.55 622.40 432.04 C 622.38 451.33 618.80 470.60 620.84 489.88 C 621.63 493.85 624.20 497.11 626.62 500.23 C 642.38 479.47 651.48 454.79 663.42 431.85 C 654.43 415.49 653.45 395.22 659.90 377.80 C 663.24 370.22 671.82 365.20 680.08 366.06 C 684.83 366.54 689.13 370.25 690.04 374.99 C 691.35 381.23 690.87 387.75 689.34 393.91 C 686.51 405.43 680.88 416.06 678.43 427.69 C 680.81 433.28 687.38 435.61 693.09 434.96 C 703.73 433.45 712.05 425.99 719.07 418.39 C 725.84 411.37 733.76 403.99 744.04 403.34 C 747.63 403.49 751.33 404.06 754.64 405.54 C 756.98 406.54 758.72 409.26 757.72 411.80 C 756.57 415.86 757.00 420.26 755.41 424.21 C 755.00 425.55 753.53 425.78 752.41 426.23 C 750.27 422.49 748.00 418.81 745.85 415.07 C 741.79 418.62 737.20 421.63 733.74 425.81 C 730.23 429.79 729.42 435.22 727.05 439.83 C 721.17 453.03 712.74 466.28 714.05 481.33 C 727.10 472.07 736.02 458.44 743.99 444.85 C 752.01 431.27 759.73 417.19 771.11 406.08 C 775.53 401.95 786.58 404.88 784.74 411.96 C 776.38 425.12 768.47 438.92 764.58 454.15 C 762.27 462.80 761.57 471.90 762.82 480.78 C 764.80 481.77 766.77 482.78 768.74 483.83 C 783.71 475.62 793.56 461.26 805.81 449.83 C 811.61 444.13 819.27 439.35 821.64 431.10 C 843.09 351.25 874.26 273.31 920.35 204.35 C 928.85 191.94 937.40 179.52 947.17 168.06 C 955.58 157.92 964.32 147.33 976.38 141.41 C 980.08 139.59 984.47 137.55 988.53 139.57 C 993.69 142.28 995.84 148.45 995.97 153.96 C 995.13 166.26 992.25 178.38 987.76 189.85 C 981.19 206.98 971.70 222.74 962.46 238.52 C 948.13 262.92 933.00 286.85 917.60 310.58 C 900.54 336.34 882.13 361.35 860.68 383.65 C 855.56 388.71 852.70 395.47 850.41 402.16 C 838.58 436.92 830.98 473.31 830.03 510.09 C 830.30 517.25 832.82 524.10 835.84 530.53 C 859.40 515.44 874.38 491.11 893.70 471.51 C 900.89 463.26 901.28 451.77 904.86 441.88 C 909.85 428.48 917.09 415.36 928.50 406.38 C 934.99 401.36 942.96 397.95 951.22 397.74 C 958.40 398.77 961.09 406.44 965.89 410.84 C 969.68 401.62 972.59 392.08 975.39 382.52 C 992.91 325.66 1017.73 271.12 1048.38 220.15 C 1064.93 193.62 1082.44 167.00 1106.15 146.22 C 1112.36 141.53 1119.50 136.06 1127.80 137.39 C 1134.45 138.47 1137.19 146.11 1137.52 152.02 C 1135.06 177.81 1123.41 201.46 1110.76 223.65 C 1077.24 282.00 1041.76 339.68 997.94 390.96 C 990.57 400.26 987.78 412.04 984.42 423.18 C 972.07 466.91 965.07 512.46 967.01 557.98 C 967.26 562.46 967.19 567.03 968.36 571.41 C 969.78 576.66 972.34 581.50 974.82 586.32 C 979.44 585.78 984.06 585.06 988.72 585.00 C 985.87 587.74 982.18 589.91 978.11 589.78 C 971.64 590.14 965.33 585.84 962.89 579.92 C 953.82 556.11 951.44 530.29 952.41 505.00 C 953.21 481.62 956.48 458.44 959.31 435.25 C 947.98 450.40 939.40 467.56 926.54 481.55 C 923.86 484.21 921.43 487.30 917.92 488.91 C 913.69 490.90 908.97 491.25 904.40 491.81 C 901.76 488.18 899.08 484.57 896.36 481.00 C 885.32 499.19 874.86 518.53 858.08 532.17 C 850.39 539.15 838.09 540.23 829.26 534.82 C 825.04 532.40 822.12 528.28 820.37 523.83 C 813.68 509.09 813.34 492.45 814.86 476.61 C 815.71 467.38 817.22 458.23 818.50 449.05 C 805.70 459.36 796.76 473.71 783.36 483.33 C 779.27 486.22 774.83 488.70 770.00 490.09 C 763.46 490.88 756.65 487.27 753.79 481.29 C 749.21 472.00 749.92 461.22 751.11 451.23 C 742.38 462.43 737.76 477.40 725.07 485.08 C 719.73 488.88 712.03 489.36 706.65 485.41 C 702.47 482.37 701.23 477.02 700.42 472.22 C 698.96 460.81 703.11 449.77 706.95 439.25 C 696.28 443.57 684.01 441.72 674.15 436.20 C 662.51 458.47 654.58 482.92 639.07 502.99 C 633.32 510.25 620.99 509.77 615.43 502.53 C 608.77 493.49 607.00 481.94 606.99 470.98 C 607.19 461.88 608.10 452.83 608.57 443.75 C 599.13 456.55 596.51 473.01 586.94 485.74 C 584.53 488.81 581.96 492.33 577.92 493.22 C 571.18 494.93 564.06 489.62 562.83 482.98 C 561.16 468.95 564.89 455.10 567.90 441.51 C 542.60 455.38 518.36 471.05 493.69 485.97 C 499.18 495.15 505.92 504.82 505.01 516.06 C 503.23 533.17 493.77 548.70 481.43 560.36 C 468.06 572.95 451.34 581.57 433.83 586.80 C 417.72 591.50 399.78 592.48 384.12 585.65 C 379.15 583.68 376.56 578.02 377.03 572.90 C 377.24 568.72 379.51 565.08 381.63 561.62 C 388.26 551.15 397.80 542.99 407.53 535.50 C 430.93 517.72 455.32 501.24 480.13 485.49 C 466.76 471.11 448.71 462.06 435.77 447.23 C 433.44 444.45 430.76 441.64 430.10 437.93 C 429.02 432.42 430.70 426.90 431.39 421.45 C 403.46 437.40 375.59 453.52 346.73 467.77 C 342.61 469.96 338.16 471.56 334.30 474.25 C 325.98 479.75 319.73 487.80 314.84 496.39 C 345.39 483.29 373.27 464.78 403.70 451.48 C 375.06 478.66 337.03 491.73 303.48 511.33 C 268.74 551.80 233.32 591.95 193.18 627.21 C 177.95 639.72 162.73 653.28 143.79 659.85 C 133.35 663.20 120.80 664.36 111.37 657.73 C 103.69 651.66 100.58 641.69 98.72 632.45 C 96.61 619.09 96.09 605.48 96.99 591.99 C 98.15 569.81 101.15 547.69 106.55 526.13 C 106.68 525.12 107.64 523.43 106.01 523.12 C 92.15 516.40 76.58 510.53 67.43 497.39 C 56.20 480.13 52.37 459.11 52.16 438.81 C 52.03 428.14 52.64 417.44 53.98 406.85 C 65.58 334.45 98.76 266.53 144.41 209.54 C 163.18 186.14 183.99 164.35 206.69 144.73 C 216.85 135.68 227.18 126.58 239.25 120.14 C 234.89 128.48 227.31 134.34 220.32 140.36 C 215.41 144.40 211.25 149.23 206.77 153.72 C 151.75 211.51 105.22 278.72 78.14 354.18 C 70.71 375.83 63.57 397.82 60.86 420.65 C 58.70 438.96 59.43 457.82 64.82 475.54 C 67.27 483.29 70.04 491.25 75.57 497.41 C 84.17 507.31 96.26 513.15 108.08 518.30 C 109.06 514.78 109.98 511.25 111.01 507.76 C 84.49 495.61 67.50 466.06 69.73 437.06 C 69.93 427.54 67.00 415.42 75.80 408.70 C 74.71 431.82 73.84 456.63 85.42 477.54 C 91.13 489.04 101.97 496.53 112.11 503.82 C 128.14 454.68 147.75 406.65 171.98 360.97 C 189.74 327.33 210.37 295.29 232.26 264.20 C 259.38 226.35 289.40 190.09 325.45 160.38 C 336.47 151.12 348.57 142.45 362.61 138.54 C 355.70 148.24 345.95 155.31 337.65 163.72 C 249.41 252.39 183.02 361.66 139.79 478.77 C 133.39 493.45 132.85 509.88 126.44 524.56 C 147.68 530.91 170.18 531.96 192.15 529.81 C 215.60 527.52 238.53 521.72 261.09 515.10 C 265.34 514.08 269.54 512.66 273.20 510.22 C 282.08 504.52 288.15 495.66 294.39 487.37 C 245.08 509.12 190.39 522.38 136.34 515.25 C 136.73 513.88 137.12 512.52 137.51 511.17 C 144.51 509.15 151.85 510.28 159.01 510.00 C 203.72 510.03 246.89 495.86 287.84 479.12 C 296.72 475.07 307.08 472.48 313.37 464.46 C 358.97 403.89 400.82 339.91 431.53 270.40 C 451.48 224.27 465.58 174.65 465.00 124.03 C 464.55 113.67 464.65 103.07 461.39 93.10 C 458.25 83.27 452.77 73.74 444.14 67.78 C 438.58 63.94 431.60 62.14 424.89 63.00 C 393.98 66.10 364.29 77.56 338.15 94.11 C 311.84 110.67 288.83 132.12 269.13 156.09 C 256.46 170.33 248.42 188.12 234.92 201.68 C 233.67 187.61 242.67 175.81 249.07 164.13 C 275.40 121.96 313.11 86.64 357.80 64.61 M 1095.37 182.45 C 1059.80 230.93 1033.07 285.21 1009.51 340.35 C 1004.16 353.50 998.26 366.64 995.89 380.74 C 1030.92 341.50 1058.47 296.43 1085.38 251.45 C 1099.32 226.15 1115.19 201.71 1125.41 174.56 C 1128.40 166.13 1128.62 156.93 1127.25 148.16 C 1114.63 157.54 1104.68 169.91 1095.37 182.45 M 962.79 175.81 C 939.93 204.66 921.25 236.52 904.13 269.02 C 887.09 302.76 870.85 337.17 860.29 373.57 C 893.13 340.95 915.95 300.23 940.23 261.25 C 945.93 252.48 950.78 243.21 956.35 234.36 C 965.05 220.13 974.09 205.97 980.43 190.48 C 985.65 177.80 988.91 164.12 988.22 150.34 C 977.69 156.55 970.36 166.49 962.79 175.81 M 674.37 373.15 C 662.05 385.52 660.34 405.47 666.27 421.28 C 672.03 406.41 677.41 391.25 679.88 375.43 C 678.05 374.63 676.21 373.88 674.37 373.15 M 924.73 433.83 C 916.85 447.57 912.28 462.91 908.76 478.28 C 912.83 475.96 916.99 473.53 919.92 469.78 C 934.10 451.60 947.82 433.01 959.78 413.28 C 956.43 411.54 953.09 409.79 949.86 407.86 C 939.14 413.81 930.77 423.28 924.73 433.83 M 487.73 491.50 C 459.13 514.38 428.68 534.89 400.99 558.89 C 397.00 563.37 391.72 567.22 389.89 573.17 C 389.11 575.88 390.59 578.45 392.19 580.52 C 413.14 577.47 433.75 570.90 451.89 559.86 C 466.48 551.00 479.47 539.12 488.38 524.47 C 494.22 514.39 493.58 501.44 487.73 491.50 M 191.88 536.83 C 168.97 538.16 145.67 536.05 123.79 528.92 C 114.84 560.81 107.39 593.80 109.31 627.14 C 109.72 634.52 111.26 642.28 116.21 648.06 C 127.11 646.15 137.48 641.85 146.82 635.96 C 160.78 627.23 173.01 616.10 185.52 605.49 C 213.86 580.34 240.08 552.87 264.44 523.87 C 240.73 530.42 216.48 535.45 191.88 536.83 Z" />
<path fill="#fefefe" opacity="1.00" d=" M 1061.27 408.17 C 1066.22 406.96 1071.86 405.98 1076.57 408.51 C 1080.21 410.28 1082.20 414.22 1082.99 418.03 C 1084.63 425.97 1083.02 434.07 1082.17 442.01 C 1103.17 444.16 1124.33 437.88 1142.11 426.86 C 1139.18 435.46 1132.37 442.53 1123.83 445.68 C 1109.55 451.17 1093.97 449.65 1079.01 449.75 C 1074.96 458.78 1071.88 468.29 1066.73 476.79 C 1062.92 483.05 1057.64 488.69 1050.83 491.66 C 1041.81 495.24 1030.59 489.65 1027.60 480.51 C 1026.45 477.09 1027.18 473.45 1027.43 469.95 C 1028.66 455.32 1031.45 440.48 1038.53 427.47 C 1043.40 418.58 1051.24 410.78 1061.27 408.17 M 1048.37 434.94 C 1055.69 436.71 1063.02 438.63 1070.53 439.38 C 1076.73 432.16 1073.30 422.18 1071.09 414.08 C 1062.07 419.16 1053.54 425.80 1048.37 434.94 M 1046.48 449.63 C 1043.75 455.77 1041.52 462.21 1040.42 468.86 C 1039.22 475.34 1040.33 482.22 1043.98 487.76 C 1056.28 477.74 1063.90 463.26 1069.01 448.49 C 1061.58 449.20 1053.17 444.96 1046.48 449.63 Z" />
<path fill="#fefefe" opacity="1.00" d=" M 481.80 613.26 C 572.42 601.66 663.86 597.27 755.17 597.17 C 762.46 596.63 769.75 597.35 777.05 597.25 C 887.25 596.79 997.59 599.59 1107.33 610.32 C 1125.54 612.96 1144.22 613.50 1161.84 619.22 C 1162.38 622.30 1162.93 625.37 1163.53 628.45 C 1058.90 615.06 953.24 615.85 847.99 614.50 C 827.34 614.39 806.67 614.76 786.02 614.24 C 718.01 614.33 649.98 613.61 582.02 616.47 C 559.24 617.10 536.56 619.30 513.85 621.03 C 473.85 624.35 433.60 628.83 395.09 640.64 C 394.04 638.15 393.05 635.65 392.08 633.15 C 401.37 627.02 412.32 624.19 423.12 622.10 C 442.55 618.37 462.19 615.90 481.80 613.26 Z" />
<path fill="#fefefe" opacity="1.00" d=" M 984.00 648.69 C 993.10 634.17 1016.12 631.63 1028.18 643.75 C 1033.05 648.45 1035.08 655.58 1033.96 662.20 C 1032.21 673.18 1023.68 682.38 1013.42 686.22 C 1004.12 688.24 993.52 686.34 986.56 679.52 C 982.29 675.28 981.10 669.15 979.33 663.63 C 966.42 679.44 955.62 697.03 947.98 715.98 C 943.85 726.26 940.13 736.94 939.52 748.10 C 939.04 755.92 940.43 764.27 945.32 770.61 C 949.38 775.93 956.48 778.05 962.96 777.36 C 970.52 776.76 977.17 772.57 983.01 768.02 C 997.81 756.19 1006.41 738.80 1014.51 722.10 C 1003.36 724.27 992.42 727.47 981.85 731.62 C 977.45 733.49 971.53 727.89 974.32 723.71 C 997.78 714.76 1022.54 707.98 1047.81 707.76 C 1048.99 709.55 1050.21 711.32 1051.42 713.11 C 1045.88 715.52 1039.76 715.69 1033.87 716.60 C 1033.50 732.94 1031.72 749.21 1030.17 765.47 C 1036.10 765.35 1043.84 762.82 1048.26 768.19 C 1042.56 769.24 1035.77 768.93 1031.52 773.53 C 1029.48 777.65 1029.89 782.47 1029.54 786.95 C 1028.96 803.84 1026.85 820.66 1023.50 837.22 C 1066.05 840.81 1108.53 845.22 1151.02 849.49 C 1155.67 849.59 1160.68 850.10 1164.30 853.38 C 1154.17 854.60 1143.95 853.53 1133.86 852.42 C 1096.80 848.44 1059.74 844.23 1022.54 841.71 C 1018.72 851.80 1014.82 862.31 1007.23 870.26 C 1001.83 876.12 994.12 879.97 986.06 879.80 C 979.08 880.17 971.86 876.78 968.42 870.57 C 962.67 861.30 964.33 849.94 964.99 839.63 C 950.42 839.62 935.34 839.20 921.51 844.51 C 924.07 840.11 929.03 838.03 933.90 837.42 C 944.57 835.92 955.37 835.40 966.15 835.25 C 972.22 818.26 981.40 802.09 994.54 789.57 C 1000.98 782.75 1009.09 777.91 1016.49 772.26 C 1016.72 760.75 1016.88 749.22 1018.45 737.80 C 1013.92 742.63 1012.33 749.25 1008.63 754.62 C 999.67 768.69 987.77 781.50 972.49 788.69 C 958.22 795.37 938.90 791.68 929.89 778.21 C 921.29 766.00 921.35 750.20 922.99 735.97 C 928.58 701.90 947.82 669.97 976.20 650.09 C 978.51 648.64 981.38 648.86 984.00 648.69 M 1004.86 643.88 C 994.69 645.51 987.04 655.96 988.27 666.12 C 988.83 671.37 992.74 676.41 998.19 677.10 C 1008.16 678.81 1017.69 671.18 1020.92 662.10 C 1022.18 657.88 1023.02 652.64 1019.99 648.95 C 1016.37 644.66 1010.25 643.24 1004.86 643.88 M 983.12 835.36 C 993.17 835.80 1003.20 836.67 1013.27 836.96 C 1016.56 819.59 1016.98 801.85 1017.07 784.22 C 1000.67 797.17 990.37 816.11 983.12 835.36 M 981.69 839.65 C 981.07 846.69 980.06 853.89 981.60 860.89 C 982.95 865.16 987.58 867.98 991.99 867.58 C 995.47 867.38 998.35 865.06 1000.83 862.82 C 1006.97 856.88 1009.87 848.59 1012.67 840.73 C 1002.35 840.04 992.02 839.89 981.69 839.65 Z" />
<path fill="#fefefe" opacity="1.00" d=" M 1098.82 655.75 C 1101.19 651.29 1103.90 646.80 1107.98 643.68 C 1111.65 644.23 1115.05 645.93 1118.52 647.22 C 1120.03 659.90 1115.10 671.94 1112.59 684.13 C 1110.63 695.38 1108.24 706.55 1106.59 717.84 C 1105.16 728.85 1103.66 740.14 1105.65 751.17 C 1116.82 714.16 1129.28 676.94 1150.07 644.06 C 1154.23 646.36 1158.14 649.06 1161.96 651.89 C 1162.10 661.44 1159.41 670.65 1157.45 679.90 C 1153.87 695.85 1150.28 711.80 1147.27 727.87 C 1145.59 737.21 1143.66 746.55 1143.21 756.06 C 1141.82 772.79 1140.38 790.87 1148.61 806.20 C 1149.27 808.06 1151.05 808.82 1152.82 809.31 C 1155.63 808.53 1158.49 807.89 1161.40 807.47 C 1162.76 813.10 1156.49 815.93 1152.11 817.18 C 1147.90 817.00 1143.94 814.93 1141.26 811.73 C 1136.51 806.14 1134.35 798.92 1132.70 791.93 C 1126.55 765.29 1129.15 737.54 1134.35 710.98 C 1136.35 699.91 1139.29 689.02 1141.51 678.01 C 1136.92 684.78 1134.43 692.62 1131.42 700.15 C 1123.49 720.67 1116.36 741.59 1111.89 763.17 C 1110.43 768.84 1109.18 775.33 1104.23 779.07 C 1101.10 780.95 1096.80 782.36 1093.43 780.30 C 1090.57 778.47 1088.98 775.22 1088.50 771.94 C 1085.20 754.41 1087.39 736.50 1089.30 718.95 C 1090.35 708.86 1093.85 699.13 1094.18 688.96 C 1080.24 721.80 1075.30 757.50 1064.61 791.39 C 1062.48 797.32 1059.44 804.06 1053.02 806.27 C 1046.97 807.93 1041.63 803.71 1037.39 799.98 C 1046.22 794.72 1050.51 784.79 1053.16 775.31 C 1057.03 763.38 1056.56 750.69 1056.66 738.32 C 1060.44 737.52 1063.59 739.92 1066.83 741.42 C 1073.51 720.48 1080.37 699.58 1088.43 679.13 C 1091.63 671.23 1094.72 663.24 1098.82 655.75 Z" />
<path fill="#fefefe" opacity="1.00" d=" M 261.41 704.64 C 269.93 700.99 279.36 709.52 279.01 718.14 C 278.19 724.62 272.32 729.87 265.90 730.50 C 261.79 730.85 258.29 728.20 255.56 725.45 C 252.46 722.22 252.13 717.20 253.30 713.09 C 254.46 709.13 258.02 706.61 261.41 704.64 Z" />
<path fill="#fefefe" opacity="1.00" d=" M 305.93 716.03 C 306.64 707.85 317.31 702.13 324.34 706.72 C 330.53 711.04 332.67 720.28 329.03 726.88 C 325.79 728.97 322.02 730.16 318.65 732.06 C 311.22 730.87 304.98 723.69 305.93 716.03 Z" />
<path fill="#fefefe" opacity="1.00" d=" M 366.52 705.66 C 374.58 703.02 383.24 710.76 382.52 718.95 C 382.46 724.51 378.13 729.42 372.85 730.81 C 364.74 733.35 355.42 725.18 357.21 716.76 C 357.98 711.66 362.20 707.94 366.52 705.66 Z" />
</g>
</svg>
