<?xml version="1.0" encoding="UTF-8" ?>
<!DOCTYPE svg PUBLIC "-//W3C//DTD SVG 1.1//EN" "http://www.w3.org/Graphics/SVG/1.1/DTD/svg11.dtd">
<svg width="1216pt" height="961pt" viewBox="0 0 1216 961" version="1.1" xmlns="http://www.w3.org/2000/svg">
<g id="#000000ff">
<path fill="#000000" opacity="1.00" d=" M 371.36 58.51 C 391.13 51.05 413.31 45.35 434.13 51.94 C 448.87 57.29 459.45 70.35 465.69 84.32 C 475.36 105.77 475.96 129.82 475.75 152.95 C 475.15 176.24 471.52 199.41 465.64 221.94 C 460.09 243.70 452.02 264.70 443.44 285.42 C 417.82 346.44 382.15 402.56 344.46 456.72 C 372.58 445.88 398.86 430.96 426.13 418.24 C 436.82 413.45 446.24 406.39 455.96 399.95 C 476.57 386.36 500.09 377.85 523.96 372.04 C 525.97 371.15 527.10 373.48 528.33 374.59 C 530.92 377.87 534.55 381.40 533.93 385.95 C 532.64 389.06 528.80 389.03 526.04 389.93 C 493.16 398.60 460.92 414.25 438.32 440.29 C 451.15 457.51 470.83 467.38 486.25 481.90 C 512.16 463.84 540.62 449.91 567.49 433.43 C 573.00 426.85 575.40 418.22 580.01 411.01 C 583.74 404.39 589.21 398.57 596.29 395.57 C 595.07 426.31 576.59 453.19 574.92 483.84 C 590.32 470.60 592.23 448.78 604.08 433.08 C 606.52 429.67 609.55 426.06 614.03 425.62 C 618.42 424.70 622.72 428.61 622.38 433.04 C 622.27 451.69 618.96 470.29 620.72 488.95 C 621.21 493.33 624.02 496.89 626.66 500.23 C 642.33 479.42 651.52 454.82 663.39 431.85 C 654.81 416.13 653.57 396.89 659.11 379.95 C 661.66 371.20 671.06 365.11 680.07 366.07 C 685.15 366.53 689.54 370.72 690.22 375.79 C 692.47 387.86 687.93 399.67 683.74 410.78 C 681.77 416.39 679.31 421.96 678.65 427.91 C 680.25 432.09 684.68 434.35 688.91 434.90 C 693.73 435.58 698.45 433.80 702.77 431.83 C 715.73 425.37 722.61 410.91 736.10 405.24 C 741.94 402.57 748.77 403.01 754.59 405.52 C 756.64 406.42 758.47 408.62 757.81 411.00 C 757.13 414.96 756.71 418.96 755.78 422.87 C 756.11 423.37 756.45 423.87 756.81 424.37 C 760.20 417.87 765.19 412.35 770.13 407.00 C 773.84 402.71 781.75 403.50 784.64 408.31 C 786.13 411.76 782.86 414.59 781.36 417.38 C 769.72 436.24 759.55 458.09 762.84 480.83 C 764.83 481.81 766.80 482.80 768.78 483.82 C 783.51 475.70 793.29 461.63 805.31 450.31 C 811.24 444.35 819.29 439.51 821.68 430.93 C 841.35 357.88 869.05 286.48 909.00 222.01 C 919.26 205.51 930.22 189.42 942.17 174.10 C 952.02 162.44 961.29 149.47 975.03 142.09 C 979.08 140.06 983.86 137.42 988.42 139.52 C 993.64 142.17 995.89 148.42 995.93 153.98 C 995.63 160.01 994.60 165.99 993.33 171.89 C 986.70 200.38 970.09 224.93 955.77 249.97 C 928.74 293.47 902.42 337.93 867.82 376.00 C 863.36 381.14 857.92 385.58 854.78 391.73 C 851.49 397.99 849.53 404.81 847.36 411.50 C 837.47 442.72 831.19 475.19 830.07 507.95 C 829.75 515.86 832.55 523.47 835.84 530.54 C 859.35 515.45 874.34 491.20 893.60 471.60 C 900.60 463.72 901.20 452.70 904.44 443.12 C 909.44 429.06 916.96 415.27 928.98 406.01 C 935.58 401.14 943.67 397.55 952.00 397.87 C 958.63 399.45 961.33 406.52 965.87 410.88 C 971.16 398.23 974.45 384.89 978.75 371.90 C 996.56 317.32 1021.00 264.95 1050.93 215.97 C 1065.11 193.70 1079.86 171.44 1098.90 152.96 C 1104.40 147.29 1110.60 142.12 1117.82 138.80 C 1122.37 136.82 1128.36 136.19 1132.45 139.50 C 1136.87 144.10 1138.44 151.02 1136.87 157.16 C 1133.18 183.81 1119.94 207.71 1106.75 230.69 C 1074.43 286.37 1040.29 341.41 998.35 390.45 C 990.85 399.59 987.96 411.32 984.65 422.41 C 971.49 468.66 964.35 516.98 967.38 565.11 C 967.71 572.76 971.38 579.65 974.81 586.32 C 979.45 585.73 984.09 585.11 988.78 585.02 C 986.06 587.38 982.88 589.60 979.15 589.74 C 972.35 590.52 965.47 586.22 962.92 579.94 C 952.45 552.69 950.99 522.94 952.95 494.08 C 954.10 474.52 957.10 455.14 959.08 435.66 C 946.51 452.29 937.41 471.67 922.04 486.09 C 917.39 490.57 910.62 491.00 904.58 491.89 C 901.78 488.31 899.12 484.62 896.36 481.01 C 885.09 499.58 874.39 519.38 857.00 533.05 C 847.33 541.01 831.00 539.82 823.44 529.52 C 819.61 523.60 817.41 516.75 815.90 509.91 C 811.78 489.74 815.70 469.17 818.48 449.10 C 804.55 460.24 795.16 476.37 779.72 485.73 C 775.23 488.22 770.21 491.33 764.87 489.80 C 759.52 488.87 755.13 484.82 753.10 479.88 C 749.29 470.89 750.06 460.85 751.01 451.37 C 743.73 460.79 739.45 472.39 730.78 480.74 C 726.18 484.83 720.46 488.84 713.98 488.10 C 708.37 487.77 703.24 483.75 701.84 478.26 C 697.43 465.21 702.39 451.59 706.93 439.30 C 696.27 443.47 684.08 441.79 674.25 436.23 C 662.37 458.41 654.65 483.01 639.01 503.04 C 633.14 510.43 620.43 509.70 615.09 502.05 C 607.93 491.93 606.60 479.02 607.12 466.96 C 607.44 459.23 608.15 451.53 608.58 443.81 C 597.98 458.08 595.85 477.26 583.16 490.18 C 578.76 495.05 570.58 494.31 566.37 489.57 C 562.62 486.14 562.29 480.77 562.45 476.03 C 562.31 464.36 565.39 453.02 567.85 441.71 C 542.44 455.25 518.38 471.15 493.71 485.97 C 499.16 495.16 505.94 504.83 505.00 516.07 C 503.63 529.58 497.33 542.26 488.70 552.61 C 476.49 567.28 459.72 577.56 441.95 584.12 C 423.69 590.94 402.62 593.62 384.26 585.71 C 377.50 583.07 375.41 574.34 378.14 568.09 C 380.96 561.69 385.26 556.06 389.97 550.93 C 399.63 540.74 411.23 532.71 422.45 524.35 C 441.36 510.92 460.54 497.85 480.12 485.42 C 467.18 471.66 450.05 462.73 437.23 448.85 C 434.20 445.40 430.55 441.87 429.95 437.07 C 429.24 431.83 430.70 426.62 431.38 421.46 C 403.45 437.41 375.57 453.53 346.72 467.78 C 342.33 470.04 337.68 471.81 333.64 474.70 C 325.69 480.15 319.66 487.95 314.93 496.26 C 345.36 483.40 373.02 464.88 403.28 451.67 C 392.38 462.35 379.47 470.74 366.30 478.34 C 348.22 488.57 329.26 497.10 311.01 507.02 C 307.69 508.91 303.91 510.36 301.49 513.47 C 275.99 543.53 249.78 573.04 221.68 600.70 C 209.47 612.48 197.22 624.26 183.94 634.84 C 171.50 645.01 158.38 655.05 142.93 660.13 C 133.72 662.93 123.23 663.95 114.35 659.56 C 107.81 656.37 104.07 649.67 101.60 643.13 C 97.22 631.26 97.09 618.43 96.51 605.95 C 97.01 578.27 100.21 550.57 107.15 523.74 C 95.83 518.05 83.64 513.45 74.06 504.89 C 68.22 499.77 64.28 492.91 61.20 485.86 C 52.15 465.21 51.19 442.12 52.71 419.94 C 53.54 405.01 56.86 390.37 60.31 375.87 C 77.16 308.06 112.31 245.55 158.14 193.11 C 172.44 176.82 187.65 161.32 204.02 147.10 C 215.06 137.29 226.08 127.16 239.21 120.17 C 233.84 130.47 223.74 136.79 215.59 144.63 C 163.79 197.24 119.03 257.70 89.46 325.63 C 79.95 347.44 72.23 370.01 66.12 393.00 C 59.42 418.96 56.84 446.77 64.06 472.91 C 66.68 481.81 69.66 491.02 76.07 497.99 C 84.66 507.54 96.48 513.24 108.06 518.30 C 108.98 514.85 110.14 511.45 110.83 507.95 C 104.23 504.17 97.55 500.28 92.15 494.80 C 79.88 483.03 71.94 466.89 70.01 450.00 C 69.03 442.70 70.09 435.35 69.50 428.03 C 69.02 421.09 69.86 413.25 75.71 408.62 C 75.14 425.07 74.35 441.78 78.05 457.96 C 79.94 466.48 83.35 474.65 88.04 482.00 C 94.08 491.19 103.36 497.46 112.10 503.81 C 130.73 446.75 154.20 391.14 184.08 339.03 C 201.81 308.42 221.30 278.83 242.33 250.39 C 262.66 223.07 284.91 197.06 309.85 173.83 C 325.87 160.10 341.69 144.47 362.54 138.55 C 355.72 148.29 345.94 155.31 337.67 163.70 C 249.42 252.38 183.03 361.65 139.79 478.77 C 133.42 493.45 132.82 509.86 126.46 524.54 C 146.96 530.72 168.68 531.87 189.92 530.02 C 213.08 527.97 235.77 522.46 258.05 515.97 C 262.78 514.60 267.72 513.60 271.97 510.97 C 281.33 505.40 287.79 496.32 294.07 487.66 C 257.90 503.18 219.52 514.70 180.02 516.79 C 165.47 517.72 150.85 517.09 136.39 515.30 C 136.74 513.91 137.09 512.53 137.45 511.16 C 144.81 509.16 152.50 510.27 160.02 510.01 C 203.97 509.82 246.40 495.99 286.70 479.59 C 293.96 476.33 301.76 474.00 308.30 469.34 C 312.30 466.60 314.84 462.38 317.74 458.61 C 342.92 424.93 366.76 390.21 388.18 354.01 C 408.32 319.69 426.97 284.32 440.98 247.02 C 457.59 202.89 467.95 155.52 464.22 108.18 C 463.13 93.82 457.68 79.01 446.45 69.51 C 440.57 64.57 432.68 62.05 425.03 62.98 C 388.52 66.60 353.93 81.91 324.45 103.37 C 303.35 118.66 284.66 137.08 268.17 157.21 C 255.95 171.16 248.24 188.60 234.83 201.55 C 233.85 187.48 242.67 175.69 249.15 164.02 C 278.08 117.73 320.79 79.56 371.36 58.51 M 1094.59 183.52 C 1059.54 231.55 1033.09 285.21 1009.78 339.73 C 1004.36 352.97 998.42 366.20 995.94 380.39 C 1019.71 354.39 1039.62 325.14 1058.49 295.47 C 1070.88 275.69 1083.13 255.81 1094.45 235.39 C 1105.93 215.42 1117.71 195.42 1125.69 173.72 C 1128.47 165.51 1128.49 156.64 1127.30 148.13 C 1114.29 157.77 1104.13 170.58 1094.59 183.52 M 972.74 163.77 C 945.29 195.63 923.63 231.95 904.11 269.06 C 887.14 302.66 870.98 336.91 860.42 373.14 C 864.92 369.38 868.67 364.84 872.59 360.51 C 895.11 334.88 912.93 305.65 930.73 276.67 C 937.36 265.66 944.45 254.94 950.71 243.71 C 960.27 227.53 970.91 211.90 978.63 194.71 C 984.86 180.81 989.00 165.67 988.23 150.33 C 982.47 154.06 977.05 158.40 972.74 163.77 M 674.33 373.11 C 662.12 385.54 660.35 405.32 666.19 421.16 C 672.09 406.49 677.40 391.41 679.74 375.73 C 678.24 374.36 676.14 373.93 674.33 373.11 M 925.13 433.15 C 917.02 447.05 912.32 462.63 908.79 478.24 C 914.73 475.33 919.69 470.86 923.34 465.37 C 936.30 448.60 948.77 431.42 959.78 413.30 C 956.41 411.54 953.08 409.74 949.79 407.85 C 939.38 413.75 931.10 422.87 925.13 433.15 M 745.73 415.11 C 741.74 418.65 737.22 421.65 733.78 425.76 C 730.26 429.81 729.34 435.27 726.99 439.96 C 721.07 453.11 712.84 466.33 713.98 481.35 C 733.50 467.67 742.84 444.97 755.65 425.76 C 754.52 425.85 753.40 425.94 752.30 426.02 C 750.16 422.35 748.02 418.69 745.73 415.11 M 406.34 554.29 C 401.00 558.62 396.06 563.52 391.86 568.97 C 389.26 572.23 388.70 577.81 392.52 580.38 C 426.47 575.64 460.63 560.72 482.27 533.29 C 486.51 527.87 490.61 521.99 491.85 515.08 C 493.68 507.02 491.56 498.66 487.83 491.47 C 460.98 512.82 432.66 532.27 406.34 554.29 M 175.08 537.18 C 157.68 536.85 140.32 534.22 123.71 528.99 C 115.00 560.54 107.52 593.07 109.25 626.02 C 109.54 633.80 111.10 641.90 116.14 648.08 C 130.98 645.57 144.53 638.32 156.48 629.39 C 196.43 598.63 231.93 562.40 264.39 523.91 C 235.32 531.90 205.34 537.68 175.08 537.18 Z" />
<path fill="#000000" opacity="1.00" d=" M 1042.45 421.46 C 1049.14 412.17 1060.53 406.07 1072.11 407.09 C 1076.64 407.54 1080.68 410.74 1082.12 415.08 C 1085.18 423.79 1083.04 433.14 1082.19 442.04 C 1103.21 444.13 1124.32 437.86 1142.13 426.88 C 1139.19 435.24 1132.71 442.24 1124.40 445.45 C 1109.99 451.23 1094.15 449.64 1079.00 449.75 C 1074.78 459.21 1071.59 469.21 1065.98 477.98 C 1062.22 483.79 1057.12 489.00 1050.67 491.72 C 1041.25 495.36 1029.43 489.01 1027.25 479.16 C 1026.59 474.65 1027.50 470.11 1027.83 465.61 C 1029.59 450.17 1033.09 434.21 1042.45 421.46 M 1048.36 434.95 C 1055.71 436.51 1063.04 439.02 1070.59 439.11 C 1076.84 432.09 1073.17 422.07 1071.12 414.10 C 1062.05 419.13 1053.56 425.82 1048.36 434.95 M 1045.89 450.88 C 1043.37 456.99 1041.17 463.31 1040.27 469.89 C 1039.25 476.10 1040.64 482.49 1043.96 487.82 C 1056.22 477.76 1063.87 463.32 1069.00 448.55 C 1063.32 448.67 1057.73 447.15 1052.06 447.54 C 1049.74 447.81 1046.76 448.39 1045.89 450.88 Z" />
<path fill="#000000" opacity="1.00" d=" M 707.03 597.63 C 725.02 597.09 743.02 597.49 761.01 596.99 C 794.96 597.62 828.93 596.88 862.88 597.63 C 945.06 598.86 1027.28 602.32 1109.09 610.54 C 1126.71 613.00 1144.75 613.71 1161.82 619.17 C 1162.39 622.26 1162.94 625.35 1163.53 628.45 C 1149.55 626.65 1135.53 625.15 1121.50 623.79 C 1066.18 618.59 1010.60 616.71 955.07 615.75 C 907.37 615.17 859.67 614.39 811.96 614.50 C 779.66 614.19 747.36 614.24 715.06 614.25 C 662.67 614.13 610.27 614.90 557.94 617.57 C 503.29 622.00 447.80 624.58 394.99 640.62 C 394.02 638.10 393.05 635.59 392.09 633.07 C 401.45 627.08 412.32 624.15 423.13 622.09 C 441.67 618.52 460.41 616.15 479.12 613.61 C 554.69 603.78 630.86 599.08 707.03 597.63 Z" />
<path fill="#000000" opacity="1.00" d=" M 983.90 648.64 C 991.99 636.27 1009.83 632.55 1022.60 639.52 C 1028.69 642.85 1033.49 648.99 1034.10 656.04 C 1035.17 665.59 1030.08 674.92 1022.81 680.81 C 1019.09 683.70 1014.86 686.40 1010.06 686.83 C 1001.46 687.83 992.14 685.35 986.04 678.99 C 982.22 674.76 981.03 669.02 979.36 663.76 C 966.60 679.02 956.19 696.24 948.54 714.60 C 944.18 725.31 940.18 736.41 939.52 748.06 C 939.04 755.88 940.41 764.23 945.30 770.58 C 948.93 775.36 955.08 777.62 960.96 777.47 C 968.79 777.46 975.87 773.47 981.94 768.85 C 997.36 757.10 1006.14 739.24 1014.49 722.24 C 1003.52 724.07 992.86 727.43 982.49 731.38 C 979.77 732.60 976.47 731.64 974.78 729.22 C 973.15 727.37 972.80 723.45 975.88 723.02 C 998.94 714.56 1023.12 707.91 1047.85 707.76 C 1049.03 709.55 1050.22 711.33 1051.42 713.12 C 1045.90 715.39 1039.92 715.84 1034.06 716.49 C 1033.28 732.86 1031.83 749.18 1030.18 765.48 C 1035.97 765.33 1043.87 762.84 1048.05 768.08 C 1042.50 769.47 1035.71 768.86 1031.56 773.52 C 1029.57 777.29 1029.91 781.78 1029.57 785.93 C 1029.07 803.16 1026.87 820.31 1023.54 837.22 C 1063.91 840.63 1104.22 844.76 1144.52 848.84 C 1151.20 849.97 1158.81 848.62 1164.37 853.35 C 1154.92 854.52 1145.36 853.69 1135.94 852.64 C 1098.21 848.58 1060.49 844.32 1022.64 841.68 C 1019.22 850.24 1016.06 859.09 1010.43 866.50 C 1005.95 872.40 999.82 877.49 992.44 879.10 C 985.91 880.49 978.51 880.11 973.05 875.90 C 968.28 872.08 965.64 866.15 964.74 860.23 C 963.71 853.40 964.52 846.49 965.02 839.66 C 950.50 839.43 935.69 839.54 921.76 844.17 C 924.36 839.95 929.20 838.04 933.92 837.41 C 944.58 835.92 955.37 835.41 966.13 835.25 C 972.17 818.49 981.14 802.50 994.04 790.05 C 1000.62 783.05 1008.86 778.01 1016.49 772.28 C 1016.69 760.77 1016.93 749.24 1018.41 737.82 C 1013.99 742.70 1012.26 749.22 1008.64 754.62 C 999.95 768.23 988.56 780.64 973.98 787.98 C 961.14 794.66 943.88 792.91 933.47 782.54 C 925.60 774.52 922.33 763.01 922.20 751.99 C 921.42 731.04 928.42 710.54 938.34 692.33 C 947.48 675.93 960.19 661.50 975.49 650.59 C 977.87 648.71 981.04 648.92 983.90 648.64 M 1002.30 644.51 C 992.47 647.57 985.80 659.06 988.94 669.04 C 990.43 673.85 995.00 677.22 1000.02 677.35 C 1012.97 677.86 1024.60 664.14 1021.44 651.44 C 1018.32 644.47 1009.08 642.44 1002.30 644.51 M 983.13 835.37 C 993.11 835.71 1003.07 836.82 1013.06 836.86 C 1016.86 819.62 1016.81 801.75 1017.10 784.16 C 1000.73 797.18 990.34 816.07 983.13 835.37 M 981.69 839.66 C 981.09 846.62 980.06 853.73 981.56 860.65 C 983.18 866.66 991.08 869.52 996.30 866.24 C 1005.50 860.87 1009.32 850.24 1012.67 840.72 C 1002.36 840.08 992.02 839.86 981.69 839.66 Z" />
<path fill="#000000" opacity="1.00" d=" M 1089.24 677.08 C 1094.31 665.35 1098.41 652.45 1107.95 643.47 C 1111.49 644.63 1115.20 645.51 1118.45 647.41 C 1120.08 659.63 1115.30 671.32 1112.82 683.07 C 1109.01 705.53 1102.73 728.19 1105.46 751.15 C 1117.07 714.25 1129.14 676.87 1150.12 644.03 C 1154.22 646.42 1158.17 649.06 1161.98 651.90 C 1161.93 664.18 1158.04 675.93 1155.66 687.87 C 1150.01 714.43 1143.27 741.00 1142.35 768.27 C 1141.72 781.60 1142.29 795.94 1149.53 807.60 C 1152.81 810.85 1157.75 807.47 1161.67 807.49 C 1162.17 811.50 1159.19 814.44 1155.76 815.86 C 1151.48 818.45 1146.11 816.35 1142.73 813.22 C 1137.81 808.57 1135.40 801.97 1133.61 795.60 C 1127.68 773.23 1128.30 749.68 1131.60 726.95 C 1133.67 712.84 1136.75 698.89 1140.01 685.02 C 1140.58 682.70 1141.15 680.39 1141.65 678.07 C 1137.22 684.06 1134.95 691.23 1132.23 698.07 C 1124.23 718.68 1116.89 739.64 1112.31 761.31 C 1111.10 766.38 1110.07 771.70 1107.12 776.11 C 1104.75 779.73 1100.23 781.51 1096.02 781.28 C 1091.63 780.46 1089.10 776.06 1088.50 771.95 C 1085.09 753.74 1087.52 735.15 1089.55 716.93 C 1090.82 707.55 1093.81 698.43 1094.23 688.93 C 1082.14 717.12 1076.92 747.59 1068.80 777.04 C 1066.63 784.47 1065.06 792.23 1061.18 799.03 C 1058.86 803.01 1054.93 806.81 1050.01 806.63 C 1045.02 806.51 1041.08 803.11 1037.49 800.05 C 1045.67 794.83 1050.17 785.79 1052.74 776.73 C 1056.93 764.40 1056.70 751.22 1056.58 738.37 C 1060.35 737.64 1063.61 739.80 1066.82 741.41 C 1073.74 719.78 1080.82 698.18 1089.24 677.08 Z" />
<path fill="#000000" opacity="1.00" d=" M 262.22 704.31 C 270.61 701.57 279.26 709.76 279.00 718.08 C 278.25 724.59 272.33 729.88 265.90 730.49 C 261.36 730.79 257.41 727.72 254.70 724.39 C 251.35 719.40 252.09 711.72 256.84 707.84 C 258.47 706.45 260.20 705.10 262.22 704.31 Z" />
<path fill="#000000" opacity="1.00" d=" M 316.24 705.32 C 324.26 703.31 330.73 711.55 330.76 718.93 C 330.71 722.14 330.65 726.77 327.01 728.06 C 324.07 729.37 321.26 731.17 318.10 731.86 C 310.49 730.63 304.48 722.62 306.09 714.94 C 306.99 709.97 311.55 706.47 316.24 705.32 Z" />
<path fill="#000000" opacity="1.00" d=" M 367.29 705.43 C 375.56 703.42 383.79 711.71 382.44 719.93 C 381.77 727.75 372.65 733.47 365.36 730.46 C 361.24 728.51 357.46 724.85 357.08 720.09 C 356.28 713.48 361.49 707.70 367.29 705.43 Z" />
</g>
</svg>
