<?xml version="1.0" encoding="UTF-8" ?>
<!DOCTYPE svg PUBLIC "-//W3C//DTD SVG 1.1//EN" "http://www.w3.org/Graphics/SVG/1.1/DTD/svg11.dtd">
<svg width="504pt" height="387pt" viewBox="0 0 504 387" version="1.1" xmlns="http://www.w3.org/2000/svg">
<g id="#ffffffff">
</g>
<g id="#010101ff">
<path fill="#010101" opacity="1.00" d=" M 63.95 49.04 C 84.29 40.09 107.21 39.86 128.97 41.91 C 142.12 43.44 155.37 45.90 167.54 51.27 C 166.23 74.90 164.81 98.53 163.76 122.19 C 172.78 123.84 182.35 127.32 187.81 135.12 C 191.49 140.12 190.80 147.35 186.86 151.99 C 182.51 157.66 175.43 159.85 168.96 162.10 C 167.99 171.53 166.36 181.21 161.26 189.39 C 158.60 194.22 154.67 198.08 150.90 202.01 C 152.00 205.91 153.71 209.90 152.85 214.04 C 152.72 216.11 151.44 218.41 152.75 220.35 C 157.51 229.43 158.75 239.98 157.37 250.06 C 164.36 250.99 170.51 255.18 174.32 261.05 C 186.13 256.51 200.79 255.69 211.42 263.54 C 217.71 257.70 226.53 254.38 235.11 256.03 C 241.59 248.70 252.44 246.99 261.54 249.57 C 262.81 250.17 264.10 249.68 265.32 249.18 C 271.28 246.74 278.43 247.29 283.61 251.26 C 287.91 248.45 293.45 247.71 298.18 249.91 C 303.39 245.46 309.75 241.13 316.91 241.61 C 320.09 241.78 320.80 245.31 320.48 247.89 C 319.38 254.71 315.35 260.59 310.68 265.50 C 311.86 270.20 310.62 275.71 306.76 278.84 C 302.53 282.15 296.91 282.80 291.71 282.51 C 287.86 288.94 280.42 291.71 273.22 291.85 C 272.20 297.12 269.86 302.34 265.63 305.79 C 260.96 309.46 254.97 310.72 249.17 311.16 C 246.07 318.25 240.59 324.33 233.54 327.64 C 225.17 331.90 215.29 332.21 206.26 330.18 C 199.94 338.45 190.49 343.90 180.31 345.85 C 173.84 335.94 168.22 325.50 162.29 315.26 L 162.07 314.65 C 161.78 313.81 161.43 312.99 161.02 312.20 C 148.02 288.22 134.48 264.54 121.47 240.57 C 125.44 235.49 129.19 230.24 133.28 225.25 C 135.27 222.81 137.11 220.24 138.45 217.38 C 131.16 223.59 126.26 232.02 120.18 239.34 C 119.68 238.80 118.68 237.71 118.18 237.17 C 126.63 254.28 136.58 270.60 145.57 287.43 C 147.77 291.78 150.86 296.06 150.60 301.17 C 146.37 295.89 143.54 289.67 139.39 284.33 C 130.39 269.31 122.13 253.80 111.97 239.50 C 114.21 237.89 116.54 236.36 118.48 234.37 C 115.88 235.33 113.51 236.77 111.16 238.22 C 109.51 235.78 108.20 232.97 105.84 231.13 C 103.11 230.41 100.13 230.63 97.61 229.12 C 98.02 227.00 98.90 224.91 101.23 224.42 C 106.00 223.00 109.68 219.60 113.23 216.28 C 117.73 211.76 124.32 208.21 130.83 209.90 C 133.49 210.77 137.09 213.96 134.90 216.87 C 132.98 218.80 130.33 216.54 128.04 216.68 C 123.08 217.00 117.80 219.54 115.52 224.16 C 114.04 226.94 115.45 230.02 115.76 232.90 C 115.98 232.87 116.41 232.82 116.62 232.80 C 116.09 230.81 115.59 228.83 115.13 226.83 C 122.58 224.71 129.71 221.43 136.19 217.20 C 136.90 214.39 135.53 211.43 133.03 210.01 C 129.03 208.02 124.22 208.65 120.27 210.42 C 117.54 211.57 115.29 214.29 112.06 213.73 C 100.42 212.89 88.87 209.30 79.07 202.91 C 74.62 200.05 70.93 196.22 66.94 192.78 C 68.70 198.83 72.62 204.43 72.20 210.97 C 72.01 215.07 67.88 217.83 68.10 222.05 C 70.47 224.72 74.65 223.84 77.82 224.34 C 79.22 230.91 80.56 237.49 81.93 244.06 C 81.49 244.50 80.60 245.38 80.16 245.82 C 88.98 241.57 97.71 236.97 105.66 231.24 C 108.84 235.79 112.43 240.15 114.63 245.30 C 111.02 244.57 107.50 243.46 103.88 242.80 C 104.79 245.55 105.76 248.28 106.50 251.08 C 96.50 252.93 87.08 247.10 77.11 248.60 C 73.22 249.21 70.27 252.10 67.59 254.77 C 70.29 252.93 72.72 250.47 75.92 249.54 C 84.81 248.03 93.20 252.50 101.99 252.67 C 104.21 252.86 106.24 251.88 108.19 250.99 C 107.14 248.66 106.06 246.34 105.01 244.02 C 107.91 244.76 110.78 245.66 113.70 246.35 C 113.93 246.09 114.39 245.56 114.63 245.30 L 115.04 244.79 C 115.36 245.30 115.98 246.30 116.29 246.81 C 113.08 249.79 110.91 253.64 108.33 257.14 C 103.24 264.51 97.38 271.71 94.45 280.26 C 100.17 268.19 109.58 258.46 116.54 247.15 C 124.45 260.13 132.23 273.19 139.65 286.45 C 141.80 291.11 144.70 295.37 147.19 299.84 C 151.98 307.85 156.19 316.20 161.51 323.88 C 166.12 331.38 170.31 339.14 174.97 346.61 C 164.23 346.81 153.37 342.78 145.97 334.87 C 132.27 341.62 115.46 343.56 101.41 336.73 C 89.33 330.94 81.97 318.10 80.65 305.06 C 70.21 299.47 59.90 291.62 55.79 280.06 C 52.55 270.75 51.65 260.79 51.82 250.99 C 51.48 245.95 51.61 240.92 51.94 235.90 C 49.39 227.21 47.41 217.62 50.88 208.87 C 54.08 201.34 58.79 194.53 63.78 188.08 C 58.74 180.15 56.10 170.92 55.41 161.60 C 49.10 158.80 42.16 155.22 39.81 148.20 C 37.50 142.86 39.82 136.74 43.73 132.81 C 49.86 126.52 58.41 123.57 66.81 121.79 C 65.98 97.53 64.23 73.31 63.95 49.04 M 158.20 101.57 C 157.86 103.89 155.43 106.27 152.98 105.23 C 147.60 103.68 142.32 101.55 136.68 101.18 C 126.98 98.85 116.86 98.73 106.95 99.49 C 95.66 100.50 84.95 104.46 74.53 108.69 C 80.64 107.22 86.59 105.09 92.83 104.14 C 107.63 101.76 122.86 102.00 137.60 104.75 C 145.62 106.53 153.44 109.03 161.10 112.01 C 161.17 94.99 161.74 77.96 162.03 60.96 C 160.18 74.44 159.27 88.02 158.20 101.57 M 114.08 124.90 C 124.95 125.23 135.73 126.77 146.56 127.79 C 156.81 130.00 167.54 130.53 177.34 134.56 C 180.76 135.80 183.18 138.59 185.83 140.94 C 184.71 136.05 180.88 132.38 176.27 130.72 C 166.89 127.16 156.76 125.90 146.78 125.70 C 135.89 125.13 124.98 124.21 114.08 124.90 M 83.31 133.74 C 78.92 137.42 75.97 143.14 76.56 148.95 C 76.75 151.53 78.35 153.83 80.48 155.22 C 84.86 156.86 89.50 155.94 93.20 153.18 C 99.56 148.41 102.46 137.44 95.81 131.71 C 91.50 130.69 86.91 130.92 83.31 133.74 M 110.44 149.94 C 109.58 157.41 114.38 164.85 121.40 167.40 C 125.92 168.75 130.65 168.09 134.83 166.01 L 135.15 166.06 C 139.93 162.67 143.79 157.17 142.61 151.02 C 143.21 151.23 144.41 151.65 145.01 151.86 C 145.35 157.00 144.99 162.16 145.16 167.31 C 146.23 167.86 147.29 168.42 148.36 168.98 C 147.49 167.94 146.61 166.92 145.74 165.89 C 145.78 160.54 145.90 155.18 145.50 149.84 C 144.70 149.67 143.09 149.32 142.28 149.15 L 143.41 147.20 C 142.91 147.10 141.92 146.89 141.42 146.79 C 141.74 147.79 142.36 149.78 142.67 150.78 C 142.42 150.82 141.92 150.90 141.68 150.94 C 140.94 146.55 138.67 142.54 135.08 139.87 L 134.69 139.94 C 130.49 138.11 125.82 138.08 121.57 139.77 C 116.58 142.53 113.62 147.66 112.52 153.13 C 110.94 144.44 119.61 136.55 127.97 136.86 C 133.70 136.61 140.40 140.50 141.09 146.58 C 141.48 145.97 141.87 145.35 142.25 144.74 C 139.83 140.89 136.75 137.13 132.23 135.76 C 122.63 132.20 111.35 139.93 110.44 149.94 M 69.65 177.51 C 72.23 182.26 78.14 183.14 82.88 184.46 L 83.20 184.33 C 87.80 185.17 92.49 185.39 97.04 184.09 C 98.10 183.32 99.15 182.54 100.19 181.75 C 103.34 185.94 108.64 187.38 113.53 188.35 C 118.11 189.13 122.90 189.48 127.46 188.35 C 129.88 187.72 132.77 185.89 132.49 183.05 C 131.91 179.71 128.66 177.66 125.62 176.83 C 127.28 178.87 133.23 181.97 128.94 184.28 C 123.19 185.28 119.49 179.67 116.19 175.90 C 112.89 171.56 106.54 169.63 101.62 172.35 C 99.72 171.18 97.71 170.21 95.61 169.45 C 92.13 169.48 89.18 171.33 86.45 173.26 C 83.27 175.39 79.95 177.62 76.08 178.13 C 73.77 178.51 72.33 176.31 70.88 174.96 C 72.37 172.98 74.35 171.50 76.23 169.92 C 72.66 170.31 67.91 173.36 69.65 177.51 M 145.65 173.08 C 145.45 174.85 145.31 176.67 144.49 178.29 C 144.98 178.98 145.48 179.68 145.98 180.37 C 145.42 181.18 144.87 182.00 144.31 182.82 C 146.08 184.67 144.88 187.56 146.36 189.60 C 145.95 186.77 147.11 184.15 147.77 181.47 C 146.87 180.28 145.99 179.08 145.06 177.93 C 147.45 176.74 146.99 174.88 145.65 173.08 M 61.50 199.06 C 62.91 204.27 64.19 209.56 64.32 214.98 C 64.56 218.54 64.26 222.24 65.52 225.65 C 66.80 228.93 69.89 230.93 72.34 233.27 C 69.53 233.12 66.69 233.46 64.92 235.88 C 66.74 240.58 70.86 243.67 75.03 246.18 C 71.86 242.71 67.14 239.93 66.52 234.86 C 69.01 234.65 71.62 234.78 73.91 233.60 C 71.40 230.89 68.22 228.62 66.65 225.18 C 65.36 222.63 65.77 219.70 65.66 216.95 C 65.68 210.76 64.11 204.66 61.50 199.06 M 55.61 217.10 C 55.13 219.59 58.61 219.63 60.18 220.29 C 59.15 219.17 56.79 218.74 56.91 216.95 C 57.60 211.18 58.87 205.44 58.49 199.60 C 57.17 205.36 56.50 211.26 55.61 217.10 M 61.37 217.96 C 61.28 225.61 60.97 233.28 61.74 240.90 C 62.35 250.32 62.32 259.79 63.56 269.16 C 63.49 252.09 63.51 234.92 61.37 217.96 M 74.43 253.67 C 72.31 254.93 73.52 258.38 75.99 257.82 C 78.83 256.99 77.01 252.42 74.43 253.67 M 68.58 265.85 C 69.40 266.67 70.26 267.45 71.14 268.21 C 72.25 267.87 73.14 267.11 73.63 266.06 C 73.07 264.92 72.32 263.90 71.65 262.84 C 70.59 263.81 69.57 264.81 68.58 265.85 M 67.73 274.93 C 67.46 275.86 67.20 276.79 66.95 277.73 C 67.71 278.40 68.52 279.02 69.36 279.60 C 69.95 279.19 71.13 278.37 71.71 277.96 C 71.16 276.75 70.60 275.55 70.05 274.34 C 69.47 274.49 68.31 274.78 67.73 274.93 Z" />
<path fill="#010101" opacity="1.00" d=" M 264.51 81.42 C 269.33 79.63 274.87 78.25 279.87 80.09 C 285.31 82.53 287.92 88.57 288.82 94.15 C 290.54 106.62 288.12 119.34 283.55 130.97 C 277.31 147.56 267.83 162.66 257.71 177.13 C 264.54 174.45 270.97 170.87 277.59 167.75 C 281.44 166.03 284.55 163.06 288.37 161.27 C 292.43 159.09 296.85 157.75 301.29 156.62 C 302.42 157.78 304.93 160.41 301.88 160.81 C 293.81 162.91 285.88 166.64 280.35 173.06 C 283.43 177.22 288.19 179.58 291.89 183.10 C 298.18 178.72 305.07 175.33 311.59 171.36 C 313.65 168.27 314.49 163.99 318.26 162.41 C 317.96 169.75 313.51 176.22 313.14 183.58 C 317.09 180.31 317.39 174.53 320.72 170.73 C 321.65 169.32 324.12 168.91 324.54 171.06 C 324.57 175.40 323.74 179.74 324.12 184.10 C 324.00 185.44 324.80 186.53 325.60 187.50 C 329.39 182.49 331.60 176.55 334.47 171.02 C 332.34 167.23 332.10 162.49 333.48 158.42 C 334.39 155.52 339.24 153.68 340.70 157.08 C 341.86 161.54 338.88 165.69 338.01 169.97 C 338.51 171.70 341.02 172.23 342.57 171.55 C 347.19 170.37 348.93 164.45 353.99 164.21 C 355.07 164.40 357.28 164.50 357.07 166.11 C 356.62 167.00 357.00 169.84 355.76 169.56 C 355.37 168.91 354.60 167.61 354.22 166.95 C 352.77 168.21 350.94 169.26 350.36 171.21 C 348.97 175.09 346.17 178.64 346.53 182.97 C 352.82 178.61 354.77 170.35 360.15 165.03 C 361.33 163.63 364.84 164.94 363.09 166.88 C 360.14 171.61 357.41 177.04 358.25 182.79 C 358.60 182.98 359.32 183.35 359.67 183.54 C 363.28 181.65 365.58 178.18 368.53 175.49 C 369.97 173.98 372.02 172.82 372.49 170.62 C 378.40 148.76 387.38 127.38 401.25 109.33 C 404.02 106.08 406.72 102.19 410.95 100.81 C 413.28 100.25 414.46 103.13 414.14 105.01 C 413.44 113.33 408.53 120.40 404.51 127.45 C 397.55 138.61 390.79 150.09 381.58 159.59 C 380.41 160.82 379.77 162.42 379.23 164.00 C 376.49 172.06 374.71 180.49 374.40 189.01 C 374.25 191.03 374.93 192.96 375.79 194.76 C 381.26 191.28 384.81 185.72 389.21 181.09 C 391.61 178.97 391.45 175.49 392.69 172.74 C 394.45 168.22 397.79 163.48 403.00 162.90 C 405.00 162.65 405.80 165.03 407.04 166.06 C 407.83 164.05 408.52 162.01 409.11 159.93 C 413.42 145.71 419.65 132.08 427.37 119.39 C 431.20 113.38 435.23 107.34 440.61 102.60 C 442.32 101.30 444.74 99.47 446.91 100.85 C 447.94 101.97 448.43 103.51 448.01 105.01 C 447.12 111.97 443.44 118.08 440.03 124.07 C 432.51 136.90 424.58 149.60 414.88 160.94 C 412.94 163.23 412.25 166.22 411.40 169.02 C 408.31 180.03 406.61 191.53 407.34 202.98 C 407.40 204.84 408.30 206.51 409.13 208.13 C 410.21 207.99 411.30 207.87 412.40 207.78 C 410.34 209.97 406.86 208.75 406.13 205.98 C 402.12 194.98 404.13 183.01 405.48 171.71 C 402.48 175.70 400.27 180.31 396.67 183.83 C 395.51 185.04 393.84 185.22 392.28 185.37 C 391.63 184.49 390.98 183.62 390.33 182.75 C 387.64 187.14 385.11 191.89 381.01 195.14 C 378.44 197.44 373.77 196.84 372.35 193.55 C 369.50 187.82 370.83 181.14 371.69 175.09 C 367.66 178.24 365.05 183.39 359.96 184.99 C 354.97 185.16 354.97 179.08 355.54 175.54 C 353.30 178.30 352.20 182.17 348.90 183.93 C 347.20 185.07 344.49 184.50 343.80 182.47 C 342.49 179.23 343.83 175.80 344.93 172.73 C 342.21 173.85 339.48 173.36 336.98 172.03 C 334.23 177.25 332.36 183.01 328.78 187.76 C 327.30 190.00 323.86 189.76 322.59 187.45 C 320.04 183.37 321.14 178.32 321.28 173.78 C 318.69 177.26 318.18 181.94 315.07 185.05 C 313.28 186.80 310.45 185.22 310.26 182.94 C 309.97 179.67 310.85 176.44 311.55 173.28 C 305.44 176.61 299.59 180.40 293.64 184.00 C 295.06 186.42 296.89 188.98 296.28 191.96 C 295.19 198.44 290.00 203.46 284.28 206.23 C 279.09 208.76 272.76 210.30 267.26 207.83 C 265.63 207.00 265.36 204.89 266.14 203.39 C 268.26 199.22 272.26 196.54 275.88 193.78 C 280.67 190.38 285.50 187.03 290.48 183.92 C 287.05 180.14 282.18 177.91 279.10 173.81 C 277.81 172.27 278.60 170.21 278.76 168.47 C 271.61 172.56 264.47 176.69 257.05 180.27 C 254.22 181.51 252.15 183.93 250.68 186.59 C 257.99 183.45 264.72 179.08 271.95 175.80 C 265.14 182.23 255.99 185.44 247.98 190.06 C 239.74 199.76 231.22 209.31 221.67 217.76 C 218.05 220.73 214.43 223.97 209.96 225.61 C 206.99 226.66 202.91 226.92 200.84 224.06 C 198.61 220.85 198.59 216.73 198.39 212.97 C 198.50 206.26 199.28 199.54 200.96 193.04 C 197.31 191.25 193.06 189.73 190.95 185.99 C 187.37 179.79 187.39 172.27 188.14 165.35 C 191.89 141.53 205.23 119.95 222.91 103.87 C 225.99 101.21 228.92 98.29 232.53 96.34 C 231.21 98.70 228.92 100.20 226.99 102.01 C 211.08 118.14 197.83 137.50 191.65 159.49 C 189.26 167.47 188.33 176.42 191.72 184.27 C 193.41 188.20 197.45 190.21 201.16 191.83 C 201.34 191.17 201.70 189.87 201.88 189.22 C 195.69 186.34 191.75 179.78 191.93 172.97 C 192.17 170.52 191.12 167.35 193.34 165.59 C 193.13 171.16 192.88 177.12 195.74 182.14 C 197.13 184.87 199.72 186.62 202.13 188.37 C 207.57 171.62 214.81 155.39 224.41 140.59 C 231.63 129.31 239.68 118.43 249.48 109.25 C 253.35 105.96 257.15 102.16 262.15 100.71 C 260.25 103.27 257.61 105.12 255.44 107.43 C 234.62 128.62 218.89 154.61 208.66 182.44 C 207.13 185.93 207.07 189.82 205.48 193.28 C 216.20 196.52 227.63 194.09 238.08 190.97 C 241.74 190.26 243.89 187.02 245.98 184.26 C 234.09 189.50 221.02 192.71 207.97 191.02 C 208.03 190.80 208.15 190.35 208.21 190.13 C 209.74 189.57 211.40 189.87 213.00 189.80 C 223.94 189.92 234.51 186.41 244.52 182.32 C 246.70 181.33 249.25 180.68 250.66 178.58 C 260.84 165.09 270.14 150.86 277.35 135.56 C 283.49 122.27 287.89 107.62 286.60 92.85 C 286.14 87.90 282.84 81.78 277.03 82.52 C 262.12 84.06 249.09 93.45 239.81 104.79 C 236.75 108.19 234.84 112.46 231.61 115.71 C 231.34 112.45 233.44 109.72 234.90 106.99 C 241.88 95.76 252.25 86.48 264.51 81.42 M 436.40 113.45 C 428.69 124.54 422.71 136.72 417.42 149.12 C 416.12 152.30 414.72 155.49 414.14 158.90 C 422.61 149.48 429.26 138.56 435.76 127.72 C 438.96 121.90 442.60 116.27 445.04 110.07 C 446.03 107.80 446.16 105.30 445.76 102.89 C 441.96 105.74 439.15 109.63 436.40 113.45 M 408.66 106.65 C 402.18 114.14 397.06 122.69 392.43 131.42 C 388.20 139.74 384.17 148.23 381.58 157.22 C 390.05 148.81 395.80 138.15 402.14 128.13 C 406.39 120.35 412.83 112.81 412.41 103.43 C 411.00 104.31 409.70 105.35 408.66 106.65 M 335.10 168.62 C 336.49 165.00 337.84 161.30 338.40 157.44 C 338.07 157.31 337.40 157.04 337.07 156.91 C 334.04 159.67 333.66 164.93 335.10 168.62 M 393.25 182.23 C 394.33 181.64 395.43 181.01 396.15 179.98 C 399.51 175.67 402.76 171.25 405.60 166.57 C 404.98 166.24 403.75 165.57 403.14 165.23 C 397.11 168.67 394.71 175.84 393.25 182.23 M 271.41 201.47 C 270.21 202.86 267.44 204.84 269.35 206.72 C 278.01 205.52 286.99 201.46 291.99 194.00 C 293.84 191.38 293.88 188.02 292.25 185.29 C 285.38 190.79 278.07 195.72 271.41 201.47 M 204.88 194.27 C 202.99 201.01 201.40 207.93 201.32 214.96 C 201.40 217.65 201.20 220.75 203.06 222.92 C 209.46 221.95 214.42 217.21 219.20 213.21 C 226.26 207.02 232.75 200.19 238.81 193.03 C 227.86 196.08 215.91 197.88 204.88 194.27 Z" />
<path fill="#010101" opacity="1.00" d=" M 421.76 180.97 C 422.14 174.64 424.20 165.27 432.08 165.07 C 436.31 165.35 435.20 170.64 434.88 173.50 C 439.96 173.98 444.92 172.60 449.21 169.91 C 447.05 176.05 439.39 175.34 434.15 175.27 C 432.56 178.75 431.50 183.05 427.94 185.07 C 425.23 186.76 421.14 184.23 421.76 180.97 M 426.76 171.80 C 428.51 172.23 430.26 172.66 432.05 172.88 C 433.76 171.34 432.78 168.63 432.29 166.71 C 430.07 167.96 428.00 169.53 426.76 171.80 M 426.29 175.28 C 425.16 178.16 423.80 181.68 425.76 184.49 C 428.77 182.06 430.57 178.57 431.82 174.98 C 430.03 175.19 427.85 174.11 426.29 175.28 Z" />
<path fill="#010101" opacity="1.00" d=" M 146.12 182.58 C 146.76 183.19 146.76 183.19 146.12 182.58 Z" />
<path fill="#010101" opacity="1.00" d=" M 78.82 206.67 C 82.05 208.92 83.81 212.66 84.69 216.40 C 82.56 213.27 80.88 209.85 78.82 206.67 Z" />
<path fill="#010101" opacity="1.00" d=" M 278.87 216.31 C 306.03 211.97 333.58 210.61 361.06 210.72 C 387.75 210.65 414.48 211.28 441.05 213.89 C 445.37 214.52 449.83 214.66 454.01 216.01 C 454.11 216.55 454.30 217.62 454.40 218.16 C 429.39 214.97 404.13 215.14 378.97 214.83 C 355.64 214.83 332.29 214.37 308.99 215.56 C 295.93 216.64 282.64 217.23 270.03 221.08 C 269.86 220.65 269.52 219.78 269.35 219.35 C 272.19 217.48 275.59 216.92 278.87 216.31 Z" />
<path fill="#010101" opacity="1.00" d=" M 69.11 222.12 C 69.12 219.00 71.31 216.58 72.75 214.01 C 72.17 215.99 71.71 218.00 71.36 220.04 C 72.84 221.64 74.88 222.52 76.70 223.67 C 74.10 223.51 71.58 222.92 69.11 222.12 Z" />
<path fill="#010101" opacity="1.00" d=" M 92.15 220.00 C 96.01 218.37 100.67 216.63 104.73 218.58 C 100.46 218.31 96.33 219.39 92.15 220.00 Z" />
<path fill="#010101" opacity="1.00" d=" M 115.11 225.73 C 117.36 221.22 121.92 217.83 126.99 217.42 C 128.73 217.51 131.03 216.97 132.16 218.74 C 126.57 221.26 121.22 224.63 115.11 225.73 Z" />
<path fill="#010101" opacity="1.00" d=" M 92.70 228.68 C 90.83 227.36 89.83 225.29 89.74 223.04 C 90.78 224.89 91.78 226.76 92.70 228.68 Z" />
<path fill="#010101" opacity="1.00" d=" M 370.52 239.79 C 375.02 232.34 387.85 232.19 391.66 240.33 C 394.31 246.88 389.29 253.94 383.13 256.10 C 379.43 256.83 375.37 256.18 372.40 253.77 C 369.96 252.00 369.32 248.86 368.49 246.15 C 361.23 254.91 355.59 265.06 352.29 275.96 C 350.85 281.35 349.99 287.74 353.35 292.60 C 356.27 296.74 362.29 296.60 366.33 294.28 C 375.08 289.54 379.72 280.26 383.88 271.67 C 379.06 272.61 374.33 273.96 369.76 275.75 C 367.90 276.81 365.11 274.34 366.26 272.41 C 376.52 268.61 387.26 265.60 398.28 265.48 C 398.67 266.04 399.44 267.17 399.83 267.74 C 397.49 268.89 394.79 268.86 392.27 269.28 C 392.02 276.42 391.31 283.54 390.61 290.66 C 393.29 290.61 396.40 289.60 398.57 291.74 C 396.01 292.34 392.88 292.05 391.05 294.31 C 390.32 296.45 390.46 298.76 390.28 300.98 C 390.03 308.03 389.08 315.05 387.69 321.96 C 405.48 323.46 423.25 325.31 441.02 327.07 C 443.65 327.63 446.94 326.88 448.99 329.00 C 443.30 329.65 437.63 328.62 431.97 328.13 C 417.08 326.49 402.19 324.83 387.24 323.90 C 385.04 330.04 382.22 336.98 375.77 339.71 C 372.09 340.89 367.19 340.94 364.58 337.62 C 361.15 333.57 361.83 327.89 362.29 323.00 C 355.94 322.96 349.48 322.77 343.42 324.99 C 344.71 322.65 347.51 322.18 349.92 321.87 C 354.18 321.41 358.45 321.13 362.74 321.11 C 365.40 313.69 369.39 306.61 375.16 301.16 C 377.95 298.17 381.50 296.10 384.70 293.62 C 384.88 288.58 384.78 283.52 385.63 278.52 C 383.58 280.36 382.99 283.20 381.49 285.43 C 377.64 291.60 372.50 297.27 365.90 300.52 C 359.76 303.64 351.36 302.27 347.21 296.57 C 343.01 290.97 343.13 283.51 344.03 276.89 C 346.69 262.63 354.72 249.18 366.60 240.73 C 367.66 239.66 369.15 239.83 370.52 239.79 M 377.35 238.30 C 372.64 240.42 370.09 247.85 374.65 251.38 C 380.19 254.45 387.12 248.72 387.10 242.88 C 387.62 238.05 380.86 236.36 377.35 238.30 M 370.08 321.15 C 374.49 321.38 378.89 321.68 383.30 321.90 C 384.70 314.27 384.98 306.50 384.91 298.76 C 377.75 304.45 373.21 312.70 370.08 321.15 M 369.33 331.95 C 369.97 334.66 373.16 336.00 375.63 334.76 C 379.83 332.53 381.56 327.68 383.05 323.45 C 378.53 323.07 374.00 323.14 369.48 322.98 C 369.14 325.94 368.83 328.98 369.33 331.95 Z" />
<path fill="#010101" opacity="1.00" d=" M 237.25 237.01 C 238.65 235.57 241.11 236.55 241.76 238.27 C 243.36 240.70 239.42 244.03 237.30 242.04 C 235.39 241.01 235.39 238.09 237.25 237.01 Z" />
<path fill="#010101" opacity="1.00" d=" M 250.14 237.08 C 253.21 235.26 255.54 239.21 254.13 241.84 C 253.52 242.13 252.29 242.71 251.68 243.00 C 248.81 242.59 247.33 238.68 250.14 237.08 Z" />
<path fill="#010101" opacity="1.00" d=" M 262.31 237.37 C 264.08 235.46 267.18 237.57 266.96 239.89 C 266.96 242.24 263.86 243.83 262.11 242.11 C 260.36 240.98 260.65 238.41 262.31 237.37 Z" />
<path fill="#010101" opacity="1.00" d=" M 419.29 245.40 C 420.76 242.60 422.09 239.48 424.67 237.51 C 426.20 237.88 427.67 238.49 429.14 239.08 C 429.92 245.04 427.26 250.70 426.33 256.49 C 424.70 265.75 422.34 275.17 423.46 284.62 C 428.54 268.49 433.82 252.05 443.01 237.72 C 444.78 238.77 446.51 239.89 448.15 241.16 C 448.04 243.14 447.95 245.14 447.52 247.08 C 444.92 258.97 442.06 270.82 440.23 282.85 C 439.62 291.40 438.08 300.84 442.44 308.69 C 443.62 310.77 446.01 308.93 447.79 309.09 C 448.70 311.13 445.67 312.63 444.01 313.12 C 439.21 313.15 436.99 307.94 435.88 304.01 C 431.27 286.87 435.39 269.00 439.41 252.17 C 438.47 253.65 437.53 255.14 436.89 256.78 C 432.65 267.43 428.62 278.23 426.31 289.49 C 425.51 292.54 424.71 296.72 420.98 297.32 C 418.52 298.20 416.63 296.06 416.21 293.86 C 414.68 286.27 415.60 278.47 416.42 270.85 C 416.87 266.13 418.52 261.59 418.63 256.83 C 412.66 271.20 410.30 286.76 405.76 301.60 C 404.82 304.19 403.59 307.22 400.84 308.31 C 398.16 309.23 395.72 307.38 393.88 305.66 C 398.56 302.89 400.07 297.40 401.38 292.49 C 402.31 288.07 402.22 283.51 402.18 279.01 C 403.72 278.15 405.19 279.71 406.65 280.16 C 410.47 268.44 414.25 256.67 419.29 245.40 Z" />
</g>
<g id="#bababaff">
</g>
<g id="#5f6060ff">
</g>
</svg>
