<?xml version="1.0" encoding="UTF-8" ?>
<!DOCTYPE svg PUBLIC "-//W3C//DTD SVG 1.1//EN" "http://www.w3.org/Graphics/SVG/1.1/DTD/svg11.dtd">
<svg width="1050pt" height="807pt" viewBox="0 0 1050 807" version="1.1" xmlns="http://www.w3.org/2000/svg">
<g id="#000000ff">
</g>
<g id="#fefefeff">
<path fill="#fefefe" opacity="1.00" d=" M 133.12 102.15 C 174.20 84.07 220.31 83.07 264.33 86.87 C 293.26 89.82 322.35 95.06 349.12 106.78 C 346.36 156.02 343.46 205.26 341.21 254.53 C 359.17 257.91 377.92 264.51 389.67 279.28 C 395.26 285.74 397.58 294.74 395.83 303.10 C 394.35 311.66 388.67 318.85 382.01 324.12 C 373.18 330.89 362.42 334.25 352.07 337.88 C 350.23 355.67 347.30 373.83 338.85 389.82 C 332.90 401.77 323.79 411.63 314.46 421.00 C 316.81 429.12 320.22 437.46 318.55 446.07 C 318.13 450.29 315.78 454.89 318.17 458.91 C 328.19 477.81 330.76 499.98 327.97 521.01 C 342.36 523.00 355.36 531.79 363.24 543.90 C 379.58 537.70 397.57 534.98 414.87 538.18 C 424.10 539.85 432.87 543.66 440.54 549.04 C 453.53 536.85 472.10 530.19 489.86 533.39 C 503.35 518.22 526.16 514.56 545.04 520.11 C 548.55 521.56 551.96 519.31 555.25 518.29 C 567.03 514.24 580.79 515.93 590.85 523.44 C 599.76 517.72 611.46 516.28 621.24 520.65 C 630.94 512.45 642.05 504.62 655.08 503.48 C 658.53 503.30 662.80 502.82 665.29 505.77 C 668.26 509.41 668.27 514.53 667.32 518.91 C 664.53 532.12 656.60 543.59 647.42 553.23 C 649.59 562.85 647.41 574.03 639.70 580.68 C 630.92 588.05 618.86 589.31 607.83 588.87 C 599.87 602.02 584.10 608.07 569.28 608.33 C 567.07 619.49 562.05 630.68 552.86 637.78 C 543.24 645.06 531.01 647.62 519.22 648.52 C 512.70 663.18 501.35 675.92 486.73 682.82 C 469.26 691.70 448.65 692.37 429.78 688.20 C 416.59 705.34 396.73 716.89 375.55 720.81 C 365.16 704.76 355.72 688.12 346.30 671.49 C 342.60 664.77 338.33 658.35 335.62 651.15 C 308.51 600.96 280.14 551.47 252.96 501.33 C 259.30 493.21 265.37 484.89 271.71 476.76 C 277.49 469.23 284.14 462.17 288.09 453.41 C 273.09 466.42 262.95 483.73 250.41 498.91 C 249.26 497.67 248.12 496.43 246.94 495.23 C 264.54 531.48 285.86 565.75 304.62 601.39 C 309.04 609.62 314.45 618.17 313.78 627.92 C 304.96 616.58 298.70 603.53 290.05 592.07 C 271.35 560.93 254.23 528.75 233.16 499.09 C 237.65 495.82 242.38 492.80 246.26 488.80 C 240.95 490.65 236.29 493.85 231.38 496.52 C 228.53 491.80 225.88 486.83 221.89 482.96 C 220.11 481.00 217.25 481.18 214.87 480.71 C 210.89 480.29 206.96 479.40 203.28 477.80 C 203.85 473.74 205.73 468.98 210.13 467.86 C 217.21 465.83 223.44 461.68 228.96 456.90 C 234.23 452.51 238.74 447.21 244.55 443.47 C 251.66 438.70 260.28 435.64 268.93 436.66 C 274.06 437.08 279.04 440.02 281.61 444.52 C 283.42 447.49 282.52 452.22 278.97 453.39 C 274.53 454.52 270.46 451.14 266.01 451.67 C 255.75 452.58 245.14 457.96 240.54 467.56 C 238.33 472.09 239.76 477.23 240.64 481.91 C 241.03 483.28 240.75 485.82 242.90 485.21 C 241.78 481.05 240.75 476.87 239.75 472.69 C 255.31 468.22 270.16 461.37 283.76 452.57 C 285.60 444.87 279.77 437.06 272.10 435.90 C 264.17 434.03 255.73 435.85 248.61 439.58 C 244.03 442.07 239.69 446.22 234.07 445.56 C 203.42 443.29 172.58 432.37 149.85 411.20 C 146.43 408.15 143.14 404.94 139.56 402.07 C 143.37 414.29 151.03 425.70 150.51 438.94 C 150.66 447.88 141.20 453.91 142.09 462.89 C 147.37 468.24 155.51 466.44 162.24 467.45 C 165.04 481.17 167.92 494.88 170.76 508.59 C 169.80 509.63 168.83 510.68 167.90 511.76 C 185.98 503.02 203.79 493.54 220.14 481.82 C 226.72 490.98 233.68 499.97 238.61 510.18 C 238.01 510.52 237.41 510.84 236.80 511.17 C 230.20 508.97 223.34 507.58 216.55 506.07 C 218.27 511.45 220.27 516.76 221.63 522.24 L 221.20 523.47 C 222.32 523.74 223.46 523.91 224.61 524.03 C 225.23 522.41 224.35 520.96 223.74 519.54 C 222.01 515.85 220.30 512.15 218.65 508.43 C 223.95 509.76 229.17 511.37 234.47 512.73 C 235.80 513.23 237.14 512.90 238.45 512.49 C 238.58 511.84 238.84 510.55 238.97 509.90 C 240.45 511.09 241.44 512.75 242.35 514.40 C 235.04 521.27 230.15 530.15 224.21 538.14 C 215.01 551.58 204.30 564.45 198.72 579.94 L 197.73 577.30 C 197.99 578.46 198.23 579.63 198.46 580.81 C 210.13 556.93 228.99 537.64 242.67 514.99 C 252.49 530.42 261.66 546.27 271.00 562.00 C 279.22 576.22 287.69 590.32 295.12 604.97 C 303.06 618.64 311.21 632.20 318.89 646.02 C 324.48 655.97 330.30 665.80 336.73 675.24 C 346.32 690.79 354.98 706.88 364.64 722.39 C 342.27 722.92 319.51 714.36 304.03 698.00 C 283.74 707.94 260.63 712.76 238.11 709.81 C 222.16 707.64 206.39 701.46 194.46 690.44 C 179.76 676.94 170.74 657.83 168.25 638.15 C 168.00 637.10 168.17 635.62 166.90 635.22 C 146.66 624.25 126.95 609.22 117.64 587.49 C 109.68 567.38 107.64 545.46 107.86 523.99 C 107.40 514.35 107.30 504.69 107.96 495.06 C 108.56 490.54 106.37 486.36 105.53 482.03 C 101.78 466.97 100.00 450.53 105.75 435.73 C 112.35 419.80 122.30 405.56 132.75 391.96 C 122.32 375.46 116.82 356.20 115.35 336.83 C 105.01 332.19 94.26 326.90 87.35 317.55 C 82.40 310.58 79.47 301.56 81.73 293.06 C 84.11 282.61 92.04 274.58 100.61 268.69 C 112.11 260.87 125.60 256.61 139.10 253.76 C 137.39 203.21 133.79 152.74 133.12 102.15 M 329.57 211.98 C 328.83 216.68 323.95 221.27 319.00 219.49 C 307.43 216.00 295.96 211.72 283.82 210.67 C 263.19 205.99 241.82 205.73 220.82 207.60 C 198.64 209.91 177.50 217.63 156.94 225.90 C 168.31 223.33 179.34 219.32 190.87 217.37 C 222.27 212.03 254.62 212.34 285.94 218.09 C 302.92 221.70 319.45 227.14 335.65 233.31 C 335.69 198.44 336.72 163.58 337.61 128.73 C 333.37 156.30 332.04 184.22 329.57 211.98 M 239.93 260.54 C 261.77 260.88 283.42 264.22 305.13 266.28 C 327.10 270.83 350.03 272.05 370.90 280.92 C 377.27 283.59 381.75 289.04 387.03 293.27 C 384.59 283.89 377.15 276.30 368.19 272.88 C 349.37 265.55 329.11 262.73 309.01 262.11 C 286.00 261.33 262.94 258.55 239.93 260.54 M 183.16 274.20 C 178.82 275.23 174.75 277.44 171.58 280.59 C 163.97 287.90 158.89 298.30 159.44 309.00 C 159.54 313.10 161.13 317.11 163.89 320.14 C 168.20 325.43 175.91 325.65 182.11 324.60 C 196.99 321.72 207.59 306.82 207.40 292.01 C 207.40 285.48 204.67 278.78 199.55 274.61 C 194.24 273.16 188.54 272.94 183.16 274.20 M 230.21 311.90 C 228.32 325.98 236.37 340.45 248.84 346.97 C 258.11 351.88 269.49 350.88 278.89 346.84 C 283.80 345.31 287.32 341.29 290.57 337.51 C 295.86 331.11 298.55 322.58 297.17 314.31 C 296.67 314.40 295.67 314.56 295.17 314.65 C 293.61 306.10 289.36 297.86 282.46 292.44 C 273.46 288.13 262.57 287.42 253.31 291.40 C 242.89 296.94 236.75 308.10 234.35 319.32 C 233.02 312.03 235.15 304.40 239.63 298.57 C 247.16 288.44 260.50 283.14 272.92 285.62 C 282.89 287.40 292.23 294.72 294.20 305.00 C 294.89 303.87 295.57 302.74 296.27 301.62 C 291.12 293.40 284.26 285.35 274.55 282.67 C 255.01 276.12 232.43 291.75 230.21 311.90 M 294.79 306.01 C 295.20 307.46 295.60 308.91 295.99 310.38 C 296.27 310.22 296.83 309.89 297.12 309.73 C 297.60 308.74 298.11 307.77 298.61 306.79 C 297.33 306.53 296.06 306.27 294.79 306.01 M 296.31 311.86 C 296.59 315.20 299.84 315.53 302.28 316.59 C 302.81 327.26 302.12 337.94 302.50 348.62 C 304.57 349.68 306.63 350.77 308.71 351.84 C 307.04 349.84 305.36 347.87 303.65 345.93 C 303.52 334.73 303.92 323.52 303.08 312.34 C 301.37 311.97 299.58 311.79 298.07 310.85 C 297.47 311.17 296.89 311.51 296.31 311.86 M 193.92 353.91 C 181.60 357.57 172.92 368.88 159.96 371.07 C 154.59 372.75 150.63 367.98 147.54 364.40 C 150.74 360.55 154.75 357.55 158.35 354.12 C 153.06 355.25 147.41 357.88 145.05 363.06 C 143.13 367.16 145.56 371.60 148.58 374.39 C 154.50 380.00 162.77 381.72 170.40 383.73 C 179.97 385.29 189.86 386.49 199.44 384.28 C 203.15 383.69 205.70 380.69 208.69 378.70 C 213.24 384.52 220.00 388.13 227.00 390.14 C 236.41 392.88 246.27 394.33 256.08 393.85 C 261.84 393.39 268.14 392.72 272.70 388.78 C 275.18 386.72 276.80 383.22 275.61 380.05 C 273.71 374.15 267.95 370.24 262.12 368.88 C 265.20 372.10 269.38 374.39 271.52 378.42 C 272.86 380.91 270.47 383.74 268.05 384.20 C 262.50 385.10 257.09 382.45 253.05 378.83 C 247.06 373.80 243.20 366.71 237.13 361.80 C 230.00 356.30 219.75 354.85 211.70 359.19 C 206.16 356.52 200.41 351.62 193.92 353.91 M 303.56 360.85 C 303.14 364.53 302.57 368.22 301.20 371.69 C 302.20 373.08 303.21 374.48 304.21 375.88 C 303.10 377.52 301.99 379.16 300.89 380.81 C 303.76 384.96 302.63 390.28 304.44 394.82 C 304.53 389.11 306.17 383.64 307.77 378.21 C 305.93 375.77 304.09 373.32 302.19 370.92 C 303.49 369.77 305.36 368.81 305.60 366.90 C 305.99 364.65 304.56 362.72 303.56 360.85 M 128.45 415.93 C 131.18 425.73 133.48 435.74 133.98 445.94 C 134.57 453.78 133.81 461.89 136.31 469.48 C 138.81 476.72 145.50 481.09 150.86 486.10 C 146.51 485.86 142.23 486.67 138.17 488.17 C 138.91 488.58 139.68 488.94 140.47 489.24 C 145.03 489.14 149.66 488.68 153.90 486.88 C 148.82 481.40 142.51 476.82 139.10 469.99 C 136.45 465.10 136.74 459.37 136.75 453.99 C 136.96 440.89 134.05 427.76 128.45 415.93 M 121.61 416.72 C 119.31 429.08 117.26 441.51 115.89 454.00 C 117.10 457.74 121.87 457.78 125.08 458.74 C 123.11 457.41 120.88 456.39 119.24 454.64 C 117.95 453.03 118.74 450.91 118.86 449.10 C 120.24 438.37 122.62 427.59 121.61 416.72 M 127.89 455.98 C 127.69 470.62 127.17 485.30 128.50 499.91 C 130.19 519.68 129.39 539.70 132.59 559.32 C 132.15 551.21 132.27 543.10 132.24 534.99 C 131.86 508.62 131.36 482.15 127.89 455.98 M 137.07 489.13 C 136.66 489.79 135.83 491.11 135.42 491.77 C 139.06 500.89 147.06 507.39 155.30 512.24 C 150.78 507.22 145.01 503.31 141.41 497.49 C 139.63 494.86 139.35 491.44 137.07 489.13 M 143.00 529.11 C 148.41 525.53 153.37 520.44 160.12 519.66 C 175.41 517.83 189.99 523.85 204.92 525.88 C 209.90 526.43 215.16 527.22 219.95 525.32 C 220.88 525.06 220.75 524.15 220.50 523.45 C 201.03 526.65 182.53 515.94 163.07 517.84 C 155.07 518.31 148.23 523.39 143.00 529.11 M 155.40 528.56 C 152.65 529.74 152.04 533.66 154.01 535.81 C 155.70 538.18 159.86 537.75 160.90 535.00 C 162.43 531.79 159.00 526.96 155.40 528.56 M 142.96 554.05 C 144.73 555.69 146.50 557.32 148.27 558.97 C 150.22 557.99 152.13 556.78 153.21 554.83 C 152.53 552.27 150.63 550.22 149.35 547.94 C 147.07 549.81 144.97 551.90 142.96 554.05 M 141.13 573.03 C 140.60 574.97 140.08 576.90 139.58 578.85 C 141.17 580.07 142.75 581.32 144.31 582.59 C 145.99 581.51 147.66 580.39 149.30 579.24 C 148.16 576.76 147.02 574.27 145.87 571.80 C 144.29 572.20 142.71 572.61 141.13 573.03 Z" />
<path fill="#fefefe" opacity="1.00" d=" M 553.93 168.57 C 563.40 165.35 574.18 163.19 583.78 167.15 C 594.28 172.27 599.57 183.89 601.55 194.86 C 605.02 217.76 601.65 241.29 594.36 263.15 C 581.51 301.40 560.16 336.04 537.16 368.94 C 551.36 363.35 564.69 355.87 578.49 349.42 C 586.24 345.86 592.60 339.96 600.26 336.23 C 608.93 331.60 618.36 328.61 627.89 326.30 C 629.46 328.50 633.99 332.07 630.90 334.61 C 613.47 339.08 596.06 346.78 584.13 360.70 C 590.67 369.20 600.36 374.25 608.13 381.43 C 621.16 372.33 635.56 365.43 648.99 356.99 C 653.41 350.58 655.29 341.57 663.16 338.21 C 662.53 353.62 653.33 367.10 652.43 382.46 C 661.06 375.04 661.27 362.16 669.40 354.38 C 671.47 352.51 675.58 352.96 676.11 356.07 C 676.37 365.74 674.36 375.39 675.38 385.06 C 675.61 387.23 677.11 388.95 678.33 390.67 C 686.09 380.20 690.83 367.96 696.66 356.41 C 692.37 348.42 691.73 338.65 694.69 330.10 C 696.06 325.93 700.61 323.12 704.94 323.52 C 707.77 323.71 710.08 326.22 710.21 329.03 C 711.44 337.56 706.44 345.11 704.51 353.12 C 703.65 355.68 706.70 357.41 708.83 357.85 C 714.44 358.69 719.42 354.98 723.11 351.17 C 726.94 347.22 731.11 342.56 736.99 342.18 C 739.40 342.40 742.78 342.45 743.96 345.03 C 743.36 347.98 744.00 351.80 741.37 353.85 C 740.20 351.93 739.07 350.00 737.96 348.07 C 734.84 350.57 731.17 352.96 729.92 356.98 C 726.99 364.96 721.39 372.34 721.94 381.23 C 735.22 371.81 739.10 354.69 750.51 343.60 C 752.62 341.57 757.72 342.69 757.53 346.06 C 751.09 356.44 744.70 368.11 746.32 380.79 C 747.31 381.34 748.31 381.89 749.31 382.45 C 756.94 378.28 761.90 370.92 768.20 365.16 C 771.08 362.36 774.82 359.93 775.88 355.80 C 788.20 310.16 806.85 265.55 835.83 227.87 C 841.57 221.07 847.10 213.08 855.90 210.10 C 860.45 208.66 863.38 214.12 862.94 218.00 C 861.73 235.44 851.64 250.31 843.16 265.01 C 828.67 288.40 814.52 312.37 795.33 332.32 C 792.72 334.96 791.25 338.44 790.09 341.90 C 784.30 359.02 780.54 376.93 780.03 395.03 C 779.97 398.82 781.42 402.39 782.89 405.82 C 794.56 398.28 802.07 386.29 811.60 376.51 C 814.09 373.91 815.03 370.33 815.89 366.94 C 817.58 359.60 820.80 352.48 825.86 346.84 C 829.68 342.60 835.08 339.37 840.92 339.39 C 844.22 340.24 845.69 343.70 847.95 345.94 C 851.55 336.88 853.74 327.35 857.17 318.24 C 868.05 287.91 882.49 258.69 901.24 232.44 C 906.17 225.71 911.59 219.29 917.88 213.79 C 921.07 211.29 924.84 208.40 929.16 209.25 C 932.18 209.86 933.44 213.34 933.73 216.06 C 932.62 230.91 925.08 244.16 917.82 256.81 C 901.88 284.19 885.05 311.27 864.42 335.43 C 860.67 339.82 859.14 345.52 857.54 350.95 C 851.00 373.62 847.40 397.29 848.55 420.93 C 848.50 425.33 850.05 429.55 852.25 433.32 C 854.55 433.79 857.04 432.94 859.43 433.03 C 855.53 437.29 847.85 435.41 846.24 429.92 C 837.69 406.83 841.78 381.82 844.65 358.07 C 838.48 366.43 833.85 376.01 826.29 383.28 C 823.91 385.75 820.30 386.10 817.08 386.37 C 815.84 384.53 814.52 382.76 813.19 381.00 C 807.47 390.38 802.07 400.44 793.19 407.26 C 787.83 411.45 778.66 409.99 775.72 403.58 C 769.77 391.54 772.45 377.74 774.23 365.05 C 766.46 371.29 761.34 380.81 751.89 384.89 C 748.26 386.78 743.55 384.67 741.86 381.11 C 739.57 376.44 740.03 371.07 740.51 366.06 C 736.10 372.03 733.55 379.92 726.63 383.57 C 723.12 385.69 717.69 384.47 716.21 380.42 C 713.54 373.77 716.05 366.58 718.45 360.26 C 713.02 362.19 707.06 361.31 702.04 358.66 C 696.73 368.87 692.96 379.90 686.42 389.44 C 685.02 391.47 683.48 393.74 680.92 394.33 C 677.30 395.43 673.20 393.48 671.62 390.08 C 667.08 382.02 668.68 372.40 669.25 363.61 L 670.24 362.51 C 669.65 362.49 669.03 362.49 668.76 363.10 C 663.95 370.17 662.71 379.30 656.62 385.55 C 654.51 387.94 650.57 387.72 648.42 385.52 C 646.84 384.16 646.18 382.05 646.24 380.03 C 645.94 373.65 647.57 367.41 648.96 361.24 C 636.32 368.18 624.21 376.02 611.87 383.46 C 614.78 388.41 618.46 393.74 617.36 399.80 C 615.14 413.56 604.17 424.21 592.01 429.98 C 581.48 435.08 568.79 438.10 557.54 433.53 C 553.79 432.34 552.54 427.57 554.19 424.27 C 556.97 418.36 561.82 413.76 566.86 409.75 C 579.09 400.22 592.01 391.59 605.07 383.22 C 597.74 375.37 587.52 370.64 581.11 361.88 C 578.85 358.73 580.30 354.69 580.67 351.21 C 565.49 359.96 550.28 368.68 534.48 376.28 C 529.15 378.90 525.30 383.68 522.38 388.73 C 537.67 382.11 551.68 372.94 566.89 366.17 C 553.38 379.04 535.63 385.68 519.53 394.52 C 515.70 396.21 513.63 400.02 510.87 402.95 C 493.43 423.05 475.51 442.97 454.75 459.72 C 448.05 464.99 440.72 470.25 432.10 471.55 C 427.11 472.34 421.18 471.26 418.21 466.78 C 413.91 460.40 413.67 452.41 413.30 444.98 C 413.22 430.58 415.18 416.22 418.50 402.22 C 411.15 398.81 402.88 395.66 398.29 388.55 C 392.67 379.46 390.97 368.53 391.06 358.01 C 390.95 345.80 393.58 333.79 396.85 322.09 C 409.04 279.46 435.28 241.58 468.58 212.64 C 473.62 208.16 478.77 203.68 484.77 200.49 C 481.28 206.63 474.92 210.16 470.34 215.33 C 438.25 248.49 411.66 288.17 399.18 332.96 C 394.28 349.49 392.49 367.99 399.58 384.17 C 403.13 392.17 411.43 396.38 419.08 399.65 C 419.54 397.86 420.00 396.08 420.42 394.30 C 407.47 388.42 399.16 374.16 399.80 360.04 C 400.04 354.86 398.46 348.68 402.77 344.68 C 402.56 356.08 401.82 368.25 407.37 378.65 C 410.19 384.69 415.78 388.65 421.05 392.41 C 432.59 357.00 447.95 322.69 468.39 291.48 C 485.54 264.99 504.79 239.27 529.45 219.26 C 534.48 215.19 540.02 211.54 546.30 209.75 C 542.91 214.50 538.20 218.02 534.09 222.09 C 488.93 267.38 455.22 323.44 433.58 383.47 C 431.52 389.82 430.91 396.58 428.25 402.75 C 448.32 408.80 469.73 405.26 489.51 399.77 C 493.97 398.32 498.92 397.77 502.74 394.82 C 506.57 391.97 509.33 388.01 512.16 384.23 C 487.44 395.06 460.06 401.73 432.99 398.11 C 433.57 394.74 437.51 395.67 439.99 395.48 C 466.18 396.43 491.41 387.63 515.14 377.43 C 518.89 376.03 521.72 373.10 523.87 369.82 C 545.50 340.83 565.30 310.24 580.12 277.18 C 591.80 250.48 599.92 221.19 596.80 191.84 C 595.52 182.71 589.42 172.00 579.09 171.90 C 564.13 172.99 549.67 178.25 536.84 185.87 C 521.08 195.20 507.64 208.06 496.42 222.44 C 491.65 228.71 488.09 235.94 482.27 241.35 C 482.33 237.73 483.13 234.14 484.84 230.94 C 493.48 214.17 505.90 199.43 520.59 187.64 C 530.66 179.69 541.82 172.92 553.93 168.57 M 917.13 225.96 C 897.91 250.32 883.87 278.28 871.50 306.60 C 868.23 314.50 864.45 322.34 862.96 330.83 C 880.39 311.35 894.09 288.95 907.47 266.60 C 914.43 254.01 922.30 241.84 927.49 228.36 C 929.23 223.97 929.24 219.14 928.69 214.51 C 924.33 217.78 920.55 221.74 917.13 225.96 M 845.90 229.03 C 834.83 243.11 825.73 258.61 817.38 274.42 C 808.73 291.46 800.52 308.85 795.15 327.24 C 803.66 318.93 810.75 309.31 817.36 299.46 C 827.21 284.44 836.37 268.99 845.66 253.63 C 852.74 242.16 859.76 229.55 859.14 215.62 C 853.67 218.93 849.84 224.14 845.90 229.03 M 698.12 351.10 C 701.08 343.69 703.67 336.07 704.96 328.17 C 704.22 327.90 702.74 327.35 702.00 327.07 C 696.16 333.47 695.12 343.17 698.12 351.10 M 819.38 379.70 C 824.11 377.46 826.83 372.89 829.93 368.93 C 835.22 361.88 840.35 354.69 844.88 347.12 C 843.17 346.23 841.48 345.32 839.81 344.41 C 827.41 351.77 822.36 366.37 819.38 379.70 M 575.61 411.62 C 570.36 415.98 564.49 419.89 560.57 425.58 C 559.31 427.23 560.03 429.19 560.91 430.82 C 579.35 428.15 598.17 419.69 608.64 403.64 C 612.17 398.48 611.82 391.63 609.02 386.23 C 597.98 394.82 586.62 403.00 575.61 411.62 M 426.87 404.98 C 422.37 421.19 418.55 437.96 419.72 454.89 C 419.86 458.36 421.01 461.71 422.96 464.58 C 436.32 462.34 446.54 452.78 456.49 444.35 C 471.16 431.51 484.66 417.36 497.21 402.45 C 474.48 408.73 449.80 412.36 426.87 404.98 Z" />
<path fill="#fefefe" opacity="1.00" d=" M 885.78 351.83 C 889.11 346.87 894.99 343.50 901.06 344.04 C 903.55 344.26 905.60 346.19 906.26 348.56 C 907.47 352.82 906.50 357.26 906.11 361.57 C 916.66 362.56 927.15 359.34 936.16 353.99 C 934.55 357.85 931.74 361.31 927.82 362.96 C 920.47 366.16 912.27 365.33 904.48 365.37 C 901.28 372.58 899.06 381.24 891.88 385.60 C 886.52 389.27 877.93 384.60 878.52 378.02 C 879.12 368.97 880.57 359.49 885.78 351.83 M 889.12 357.79 C 892.73 359.03 896.51 359.64 900.27 360.30 C 903.25 356.56 901.69 351.63 900.56 347.50 C 896.04 350.04 891.97 353.42 889.12 357.79 M 888.24 365.04 C 885.85 371.12 883.11 378.37 886.94 384.48 C 893.07 379.40 896.88 372.22 899.52 364.84 C 895.76 364.71 891.85 363.51 888.24 365.04 Z" />
<path fill="#fefefe" opacity="1.00" d=" M 164.16 430.59 C 171.10 435.26 174.64 443.32 176.65 451.16 C 171.88 444.69 168.40 437.40 164.16 430.59 Z" />
<path fill="#fefefe" opacity="1.00" d=" M 581.87 450.57 C 629.85 442.96 678.45 439.81 726.99 439.17 C 791.69 438.77 856.55 439.28 920.98 445.95 C 929.32 447.03 937.82 447.54 945.91 450.05 C 946.18 451.60 946.46 453.15 946.76 454.71 C 904.40 449.34 861.65 448.49 819.01 448.09 C 796.02 447.71 773.02 447.79 750.03 447.63 C 707.86 447.69 665.58 447.08 623.53 450.89 C 602.98 452.54 582.30 454.80 562.50 460.80 C 562.00 459.54 561.51 458.28 561.03 457.02 C 567.29 453.08 574.70 451.82 581.87 450.57 Z" />
<path fill="#fefefe" opacity="1.00" d=" M 151.65 445.80 C 150.51 450.08 149.41 454.37 148.73 458.74 C 152.12 461.75 156.15 463.81 159.97 466.19 C 154.44 465.90 149.03 464.59 143.77 462.94 C 144.15 456.40 148.37 451.16 151.65 445.80 Z" />
<path fill="#fefefe" opacity="1.00" d=" M 264.02 453.08 C 268.00 452.86 272.53 452.47 275.67 455.50 C 264.09 461.35 252.57 468.06 239.67 470.52 C 244.25 461.19 253.58 454.11 264.02 453.08 Z" />
<path fill="#fefefe" opacity="1.00" d=" M 191.75 458.55 C 199.96 454.84 209.67 451.50 218.42 455.45 C 209.41 455.15 200.60 457.24 191.75 458.55 Z" />
<path fill="#fefefe" opacity="1.00" d=" M 187.00 464.73 C 189.20 468.65 191.46 472.57 193.09 476.77 C 189.40 473.91 186.85 469.49 187.00 464.73 Z" />
<path fill="#fefefe" opacity="1.00" d=" M 771.78 499.57 C 779.51 487.40 797.77 484.37 809.34 492.70 C 814.25 496.17 817.56 501.93 817.52 508.02 C 817.74 518.00 811.10 527.05 802.64 531.79 C 797.40 535.04 790.83 534.81 785.04 533.49 C 779.47 532.02 773.95 528.77 771.27 523.50 C 769.59 520.23 768.72 516.64 767.66 513.15 C 754.98 528.46 744.70 545.80 737.66 564.41 C 733.94 574.14 730.90 584.44 731.43 594.97 C 731.84 601.28 733.84 607.92 738.56 612.37 C 744.53 617.62 753.57 617.52 760.56 614.49 C 769.68 610.28 777.21 603.21 783.16 595.21 C 789.79 586.27 794.79 576.25 799.60 566.25 C 789.46 568.24 779.51 571.15 769.89 574.90 C 765.90 576.83 760.19 571.07 763.32 567.58 C 784.59 559.57 806.97 553.42 829.84 553.22 C 830.95 554.83 832.04 556.46 833.11 558.12 C 828.09 560.20 822.62 560.51 817.30 561.19 C 816.76 576.07 815.29 590.88 813.85 605.69 C 819.41 605.31 825.72 603.86 830.49 607.66 C 826.02 609.54 820.61 608.57 816.57 611.65 C 813.47 613.59 813.90 617.75 813.48 620.92 C 812.96 637.70 811.15 654.44 807.80 670.90 C 848.44 674.33 889.00 678.62 929.58 682.62 C 931.92 682.92 933.91 684.25 935.78 685.61 C 922.79 687.21 909.81 684.62 896.88 683.55 C 866.98 680.31 837.07 676.86 807.04 675.16 C 804.10 681.68 801.88 688.75 797.81 694.78 C 793.32 701.78 786.49 708.15 777.92 709.19 C 771.14 710.34 763.09 708.97 758.91 702.97 C 752.39 694.47 753.79 683.09 754.66 673.12 C 741.41 673.09 727.76 672.79 715.13 677.42 C 717.62 673.23 722.47 671.49 727.08 670.97 C 736.57 669.71 746.14 669.29 755.70 669.05 C 761.17 653.58 769.57 638.88 781.54 627.51 C 787.11 621.56 794.17 617.37 800.57 612.43 C 801.81 611.74 801.33 610.19 801.51 609.06 C 801.65 599.56 801.86 590.04 803.18 580.63 C 799.09 584.87 797.66 590.76 794.43 595.56 C 786.57 607.92 776.30 619.23 763.11 625.96 C 753.22 631.27 740.54 631.01 730.95 625.16 C 723.87 620.87 719.35 613.31 717.29 605.45 C 714.83 595.82 715.36 585.68 716.87 575.95 C 722.69 546.06 739.79 518.12 764.96 500.70 C 766.98 499.45 769.50 499.79 771.78 499.57 M 788.43 495.74 C 780.50 498.25 775.00 506.64 775.67 514.89 C 776.05 519.97 779.83 524.90 785.13 525.41 C 797.05 526.99 808.16 514.72 806.21 503.03 C 804.10 495.85 794.85 493.76 788.43 495.74 M 771.09 669.21 C 780.22 669.70 789.34 670.27 798.47 670.79 C 801.39 654.95 801.96 638.78 801.86 622.72 C 787.06 634.58 777.61 651.69 771.09 669.21 M 769.40 691.14 C 770.17 697.03 777.57 700.39 782.65 697.49 C 791.28 692.75 794.85 682.89 797.91 674.12 C 788.56 673.32 779.18 673.52 769.82 673.12 C 769.12 679.08 768.53 685.16 769.40 691.14 Z" />
<path fill="#fefefe" opacity="1.00" d=" M 495.28 493.07 C 499.60 490.56 505.05 495.36 504.46 499.93 C 503.77 503.55 499.78 506.57 496.10 505.52 C 493.44 504.50 491.00 501.99 491.34 498.95 C 491.23 496.34 493.11 494.24 495.28 493.07 Z" />
<path fill="#fefefe" opacity="1.00" d=" M 523.13 493.16 C 529.60 491.44 533.69 503.20 527.12 505.24 C 522.98 508.47 517.57 503.47 517.92 498.98 C 517.90 496.05 520.43 493.77 523.13 493.16 Z" />
<path fill="#fefefe" opacity="1.00" d=" M 547.54 493.70 C 551.59 491.43 556.71 495.63 556.27 499.98 C 556.24 503.99 551.76 507.15 547.98 505.86 C 545.61 504.89 543.45 502.71 543.50 500.00 C 543.40 497.27 545.35 495.05 547.54 493.70 Z" />
<path fill="#fefefe" opacity="1.00" d=" M 879.53 500.42 C 881.08 498.42 882.59 496.01 884.97 495.00 C 888.15 495.65 891.12 497.04 894.16 498.16 C 895.13 506.54 893.08 514.82 890.92 522.85 C 888.48 531.46 887.33 540.34 885.56 549.10 C 882.98 563.43 880.38 578.11 882.35 592.69 C 892.75 559.08 903.83 525.11 922.93 495.28 C 926.60 497.43 930.06 499.89 933.61 502.25 C 933.83 512.05 930.77 521.47 928.85 530.97 C 923.49 556.12 916.96 581.24 915.86 607.04 C 915.13 619.48 915.63 632.81 922.19 643.79 C 925.02 647.09 929.63 643.87 933.19 643.86 C 934.15 647.76 930.69 650.39 927.52 651.70 C 922.68 654.18 917.08 650.80 914.13 646.88 C 908.40 639.14 906.79 629.32 905.22 620.05 C 900.58 588.48 907.98 556.91 915.10 526.30 C 911.14 531.76 909.08 538.24 906.61 544.43 C 899.83 561.90 893.57 579.63 889.39 597.93 C 887.77 604.32 887.10 611.45 882.73 616.69 C 879.57 619.90 873.45 621.67 869.94 618.04 C 867.25 615.49 866.81 611.64 866.29 608.18 C 864.13 592.68 866.07 577.01 867.82 561.57 C 868.82 552.96 872.10 544.60 871.74 535.85 C 867.39 547.72 863.31 559.71 860.17 571.96 C 855.11 590.82 851.13 609.98 845.35 628.64 C 843.43 634.11 840.82 640.36 835.01 642.61 C 829.42 644.50 824.28 640.54 820.40 636.99 C 828.66 632.24 832.43 622.86 834.89 614.12 C 838.26 603.44 837.84 592.10 837.88 581.04 C 841.30 580.25 844.21 582.43 847.13 583.80 C 852.91 565.94 858.71 548.06 865.49 530.54 C 869.61 520.27 873.46 509.75 879.53 500.42 Z" />
</g>
</svg>
